/* XPM */
static char *result[] = {
/* columns rows colors chars-per-pixel */
"64 64 214 2 ",
"   c black",
".  c gray2",
"X  c #0F0504",
"o  c #0D0907",
"O  c #090A0A",
"+  c #0E0B0B",
"@  c #0C0C0E",
"#  c #0E0F0F",
"$  c #130A08",
"%  c #190E0E",
"&  c #1E0C13",
"*  c #161310",
"=  c #131414",
"-  c #171919",
";  c #1A1E1E",
":  c #290905",
">  c #2E0F0C",
",  c #330804",
"<  c #31020A",
"1  c #340F0A",
"2  c #3A100B",
"3  c #241513",
"4  c #281B15",
"5  c #231C1B",
"6  c #351714",
"7  c #361517",
"8  c #3E1410",
"9  c #351D16",
"0  c #301F19",
"q  c #3A1D19",
"w  c #31261D",
"e  c #36241C",
"r  c #38271E",
"t  c #1F2323",
"y  c #2A2222",
"u  c #25242B",
"i  c #2B242D",
"p  c #232828",
"a  c #272A2C",
"s  c #292D2D",
"d  c #2B2D2E",
"f  c #372620",
"g  c #3F2721",
"h  c #3C2D22",
"j  c #3F2E25",
"k  c #382B29",
"l  c #2E2E35",
"z  c #2D3232",
"x  c #32303A",
"c  c #343738",
"v  c #3A3C3D",
"b  c #3C3C3F",
"n  c #450808",
"m  c #570C1B",
"M  c #471F1A",
"N  c #630612",
"B  c #690811",
"V  c #7E0B19",
"C  c #7A1A10",
"Z  c #552119",
"A  c #57251C",
"S  c #6C1520",
"D  c #661F26",
"F  c #462421",
"G  c #482420",
"H  c #4C2922",
"J  c #4A2B2B",
"K  c #512D2B",
"L  c #4C3028",
"P  c #52392E",
"I  c #4C2F35",
"U  c #5B2439",
"Y  c #423A31",
"T  c #44303E",
"R  c #543C30",
"E  c #543338",
"W  c #6C2429",
"Q  c #76242D",
"!  c #78332E",
"~  c #6C3F39",
"^  c #723F3A",
"/  c #504338",
"(  c #79513F",
")  c #393741",
"_  c #4E3F40",
"`  c #683047",
"'  c #424647",
"]  c #404249",
"[  c #464650",
"{  c #734640",
"}  c #794840",
"|  c #7B4B42",
" . c #575465",
".. c #9A190C",
"X. c #9D1B0E",
"o. c #900E14",
"O. c #83111F",
"+. c #981312",
"@. c #931C14",
"#. c #98181E",
"$. c #A0190D",
"%. c #AC1910",
"&. c #B91B11",
"*. c #BC1E15",
"=. c #98281C",
"-. c #9C2E1E",
";. c #A12013",
":. c #BA221B",
">. c #861422",
",. c #9A1B21",
"<. c #A41E20",
"1. c #852125",
"2. c #8B2E25",
"3. c #8D3128",
"4. c #882A3D",
"5. c #932A30",
"6. c #863036",
"7. c #973A34",
"8. c #B33A2A",
"9. c #A33A3E",
"0. c #BC3735",
"q. c #B93D31",
"w. c #B33F3D",
"e. c #C71F10",
"r. c #CE2110",
"t. c #C4271E",
"y. c #CF281A",
"u. c #D12413",
"i. c #D62A19",
"p. c #D02E1F",
"a. c #D82D1C",
"s. c #CA342E",
"d. c #D0362E",
"f. c #D03D28",
"g. c #D13D37",
"h. c #E53D2C",
"j. c #93453C",
"k. c #D84037",
"l. c #D4483C",
"z. c #E64436",
"x. c #ED4635",
"c. c #9A4844",
"v. c #815543",
"b. c #815448",
"n. c #865D4D",
"m. c #985344",
"M. c #905D4B",
"N. c #9D5F4C",
"B. c #9C5E52",
"V. c #B04042",
"C. c #A05742",
"Z. c #A85B46",
"A. c #AD564C",
"S. c #A25D50",
"D. c #92604D",
"F. c #927358",
"G. c #A26355",
"H. c #A26C54",
"J. c #A36C57",
"K. c #A86C55",
"L. c #A86C5B",
"P. c #B46C58",
"I. c #A97058",
"U. c #A8755A",
"Y. c #AA775C",
"T. c #B4725E",
"R. c #B87860",
"E. c #C94E48",
"W. c #D6544B",
"Q. c #DE5E54",
"!. c #D57458",
"~. c #C37861",
"^. c #ED7067",
"/. c #F57970",
"(. c #8DAE37",
"). c #ADBC3A",
"_. c #B48766",
"`. c #BE8166",
"'. c #BB8B6A",
"]. c #BB8E6D",
"[. c #C68167",
"{. c #C88469",
"}. c #D28B6D",
"|. c #C19470",
" X c #D39071",
".X c #D29072",
"XX c #D69070",
"oX c #DA9372",
"OX c #D89473",
"+X c #DE9976",
"@X c #D09C78",
"#X c #D89C79",
"$X c #E09C78",
"%X c #4D6B9B",
"&X c #737FA5",
"*X c #559FD6",
"=X c #6FACDC",
"-X c #7CB3DF",
";X c #B38D92",
":X c #B3B3BC",
">X c #E19594",
",X c #EAAB82",
"<X c #F0B488",
"1X c #C0A7B7",
"2X c #F8C090",
"3X c #E7BBC0",
"4X c #E9BFC3",
"5X c #A2C7E9",
"6X c #BCD4EF",
"7X c #EEC5CA",
"8X c #F1C8CD",
"9X c #C9DBF2",
"0X c #E2E8F8",
"qX c #EFEFFB",
/* pixels */
").).).).).).).).).).).).).).).).).).).).).).).).).).).).).).).).).).).).).).).).).).).).).).).).).).).).).).).).).).).).).).).).",
").).).).).).).).).).).).).).).).).).).).).).).).).).).).).).).).).).).).).).).).).).).).).).).).).).).).).).).).).).).).).).).).",
").).).).).).).).).).).).).).).).).).).).).).).).).).).).).).).).).).).).).).).).).).).).).).).).).).).).).).).).).).).).).).).).",
").).).).).).).).).).).).).).).).).).).).).).).).).).).).).).).).).).).).).).).).).).).).).).).).).).).).).).).).).).).).).).).).",
").).).).).).).).).).).).).).).).).).).).).).).).).).).).).).).).).).).).).).).).).).).).).).).).).).).).).).).).).).).).).).).).",
").).).).).).).).).).).).).).).).).).).).).).).).).).).).).).).).).).).).).).).).).).).).).).).).).).).).).).).).).).).).).).).).",
").).).).).).).).).).).).).).).).).).).).).).).).).).).).).).).).).).).).).).).).).).).).).).).).).).).).).).).).).).).).).).).).",
").).).).).).).).).).).).).).).).).).).).).).).).).).).).).).).).).).).).).).).).).).).).).).).).).).).).).).).).).).).).).).).).",
").).).).).).).).).).).).).).).).).).).).).).).).).).).).).).).).).).).).).).).).).).).).).).).).).).).).).).).).).).).).).).).).",
").).).).).).).).(.(.).).).).).).).).).).).).).).).).).).).).).).).).).).).).).).(.(.).).).).).).).).).).).).).).).).).).).).).).",
").).).).).).).).(.(.).).).).).).).).).).).).).).).).).).).).).).).).).).).).).).(.(.).).).).).).).).).).).).).).).).).).).).).).",
").).).).).).).).).).(.(.).).).).).).).).).).).).).).).).).).).).).).).).).).).).).).(.(.).).).).).).).).).).).).).).).).).).).).",
").).).).).).).).).).(.(.).).).).).).).).).).).).).).).).).).).).).).).).).).).).).).(.(.).).).).).).).).).).).).).).).).).).).).",
").).).).).).).).).).).).).).).).).).).).).).).).).).).).).).).).).).).).).).).).).).).).).).).).).).).).).).).).).).).).).).).).",
").).).).).).).).).).).).).).).).).).).).).).).).).).).).).).).).).).).).).).).).).).).).).).).).).).).).).).).).).).).).).).).).",
").).).).).).).).).).).).).).).).).).).).).).).).).).).).).).).).).).).).).).).).).).).).).).).).).).).).).).).).).).).).).).).).",
").).).).).).).).).).).).).).).).).).).).).).).).).).).).).).).).).).).).).).).).).).).).).).).).).).).).).).).).).).).).).).).).",
").).).).).).).).).).).).).).).).).).).).(.(.).).).).).).).).).).).).).).).).).).).).).).).).).).).).).(.(.).).).).).).).).).).).",
").).).).).).).).).).).).).).).).).).).).(.(.).).).).).).).).).).).).).).).).).).).).).).).).).).).).).(.(.).).).).).).).).).).).",
").).).).).).).).).).).).).).).).).).(.(.).).).).).).).).).).).).).).).).).).).).).).).).).).).).).(.(.).).).).).).).).).).).).).",
").).).).).).).).).).).).).).).).).).(.(.).).).).).).).).).).).).).).).).).).).).).).).).).).).).).(.(.).).).).).).).).).).).).).",
").).).).).).).).).).).).).).).).).).).).).).).).).).).).).).).).).).).).).).).).).).).).).).).).).).).).).).).).).).).).).).).).",
").).).).).).).).).).).).).).).).).).).).).).).).).).).).).).).).).).).).).).).).).).).).).).).).).).).).).).).).).).).).).).).).",
").).).).).).).).).).).).).).).).).).).).).).).).4.S I b b b b b b b b b b I S 4.).).).).).).).).).).).).).).).).).).).).).).).).",
").).).).).).).).).).).).).).).).).).).).).).).4.<.w.;X:X:X:X:X:X:X:X:X:X:X;Xw.<.4.).).).).).).).).).).).).).).).).).).).).).).).",
").).).).).).).).).).).).).).).).).).).).).).).V :.Q.4XqXqX0X9X6X6X9X0XqXqX4XQ.:.V ).).).).).).).).).).).).).).).).).).).).).).).",
").).).).).).).).).).).).).).).).).).).).).).).O.s.^.7XqXqX9X-X*X*X-X9XqXqX7X^.s.O.).).).).).).).).).).).).).).).).).).).).).).).",
").).).).).).).).).).).).).).).).).).).).).).).,.k./.8X0X9X5X=X*X*X=X5X9X0X8X/.k.,.).).).).).).).).).).).).).).).).).).).).).).).",
").).).).).).).).).).).).).).).).).).).).).4.<.t.z./.8X9X-X=X5X6X6X5X=X-X9X8X/.z.t.<.4.).).).).).).).).).).).).).).).).).).).).).",
").).).).).).).).).).).).).).).).).).).).U B %.i.h.^.7X9X-X=X5X6X6X5X=X-X9X7X^.h.i.%.B ` ).).).).).).).).).).).).).).).).).).).).",
").).).).).).).).).).).).).).).).).x x i & n $.u.i.Q.4X0X9X5X=X*X*X=X5X9X0X4XQ.i.u.$.n T ).).).).).).).).).).).).).).).).).).).).",
").).).).).).).).).).).).).).).).).u @     , ..r.r.l.>X3X3X1X&X%X%X&X1X3X3X>Xl.r.r..., u ).).).).).).).).).).).).).).).).).).).).",
").).).).).).).).).).).).).).).).).).u     , ..r.r.p.l.W.W.E.V.9.9.V.E.W.W.l.p.r.r..., @ u ).).).).).).).).).).).).).).).).).).).",
").).).).).).).).).).).).).).).).).).u o 4 Z @.&.e.r.r.r.r.r.r.r.r.r.r.r.r.r.r.e.&.@.Z 4 o u ).).).).).).).).).).).).).).).).).).",
").).).).).).).).).).).).).).).).).u @ 4 ( m.1.o.&.r.r.r.r.r.r.r.r.r.r.r.r.r.r.&.o.1.m.( 4 @ u ).).).).).).).).).).).).).).).).).",
").).).).).).).).).).).).).).).).).u @ e H.P.W N +.*.y.a.a.a.a.a.a.a.a.a.a.y.*.+.N W P.H.e     x ).).).).).).).).).).).).).).).).",
").).).).).).).).).).).).).).).).).).u e H.K.G < N #.d.x.x.x.x.x.x.x.x.x.x.d.#.N < G K.H.e     x ).).).).).).).).).).).).).).).).",
").).).).).).).).).).).).).).).).).).u 4 ( v.g 7 D 5.0.g.g.g.g.g.g.g.g.g.g.0.5.D 7 g v.( 4 @ u  .).).).).).).).).).).).).).).).).",
").).).).).).).).).).).).).).).).).u @ o 4 g K ^ S.A.5.>.>.>.>.>.>.>.>.>.>.5.A.S.^ K g 4 o ).).).).).).).).).).).).).).).).).).).",
").).).).).).).).).).).).).).).).).u @     3 ~ G.[.~.c.Q m m Q 6.6.Q m m Q c.~.[.G.~ 3     ).).).).).).).).).).).).).).).).).).).",
").).).).).).).).).).).).).).).).).).u     0 M.[.}.XX XJ.F F J..X.XJ.F F J. XXX}.[.M.0     @ u  .).).).).).).).).).).).).).).).).",
").).).).).).).).).).).).).).).).).).).u @ 0 M.[.}.+X,X'.P R |.2X2X|.R P '.,X+X}.[.M.0 @ u x x  .).).).).).).).).).).).).).).).).",
").).).).).).).).).).).).).).).).).).).).u 3 ~ G.[.oX+X`.| b.@X2X2X@Xb.| `.+XoX[.G.~ 3 u ).).).).).).).).).).).).).).).).).).).).",
").).).).).).).).).).).).).).).).).).).).x % J { D.I.R.T.B.L.#X<X<X#XL.B.T.R.I.D.{ J % x ).).).).).).).).).).).).).).).).).).).).",
").).).).).).).).).).).).).).).).).).).).x + y k f L } B.T.{.OX$X$XOX{.T.B.} L f k y + x ).).).).).).).).).).).).).).).).).).).).",
").).).).).).).).).).).).).).).).).).).).x * Y / j H ! j.N.H.H.H.H.H.H.N.j.! H j / Y * x ).).).).).).).).).).).).).).).).).).).).",
").).).).).).).).).).).).).).).).).).).).x w F.].Y.Z.8.=.A e e e e e e A =.8.Z.Y.].F.w x ).).).).).).).).).).).).).).).).).).).).",
").).).).).).).).).).).).).).).).).).).).x h _.,X+X!.f.X.2 O O O O O O 2 X.f.!.+X,X_.h x ).).).).).).).).).).).).).).).).).).).).",
").).).).).).).).).).(.(.).).).).).).).).x r U.+XoX!.f.;.M ; ; ; ; ; ; M ;.f.!.oX+XU.r ).).).).).).).).).).).).).).).).).).).).).",
").).).).).).).).).).(.(.).).).).).).).). ._ n.H.H.C.-.C q t s z z s t q C -.C.H.H.n._ ).).).).).).).).(.(.).).).).).).).).).).).",
").).).).).).).).).).).).(.(.).).).).).).).)._ e e 9 1 : $ - c ' ' c - $ : 1 9 e e _ ).).).).).).).).).(.(.).).).).).).).).).).).",
").).).).).).).).).).).).(.(.).).).).).).).).x             # d v v d #             x ).).).).).).).(.(.).).).).).).).).).).).).).",
").).).).).).).).).).).).).).).).).).).).).).x             . # = = # .             x ).).).).).).).(.(.).).).).).).).).).).).).).",
").).).).).).).).).).).).).).).).).).).).).). .x x u @ X > > X     X > > X @ u x x  .).).).).).).).).).).).).).).).).).).).).).).",
").).).).).).).).).).).).).).).).).).).).).).).).).).u > 2.2.>     > 2.2.> u ).).).).).).).).).).).).).).).).).).).).).).).).).).",
").).).).).).).).).).).).).).).).).).).).).).).).).).x 8 q.q.8     8 q.q.8 x ).).).).).).).).).).).).).).).).).).).).).).).).).).",
").).).).).).).).).).).).).).).).).).).).).).).).).).x 8 q.q.8     8 q.q.8 x ).).).).).).).).).).).).).).).).).).).).).).).).).).",
").).).).).).).).).).).).).).).).).).).).).).).).).). .E 7.3.6 O O 6 3.7.E  .).).).).).).).).).).).).).).).).).).).).).).).).).).",
").).).).).).).).).).).).).).).).).).).).).).).).).).).).E 6 5 ; ; 5 6 E ).).).).).).).).).).).).).).).).).).).).).).).).).).).).",
").).).).).).).).).).).).).).).).).).).).).).).).).).).). .l a p p a l  .).).).).).).).).).).).).).).).).).).).).).).).).).).).).",
").).).).).).).).).).).).).).).).).).).).).).).).).).).).).).] p p ] ).).).).).).).).).).).).).).).).).).).).).).).).).).).).).).",
").).).).).).).).).).).).).).).).).).).).).).).).).).).).).).[ ; ; [ ).).).).).).).).).).).).).).).).).).).).).).).).).).).).).).",
").).).).).).).).).).).).).).).).).).).).).).).).).).).).).).) O O ) ).).).).).).).).).).).).).).).).).).).).).).).).).).).).).).",
").).).).).).).).).).).).).).).).).).).).).).).).).).).).).).x     x ).).).).).).).).).).).).).).).).).).).).).).).).).).).).).)."
};
