/* XPM */
static char *result[] = {
/* columns rows colors chars-per-pixel */
"64 64 201 2 ",
"   c black",
".  c gray2",
"X  c #0D0201",
"o  c #0F0504",
"O  c #080B03",
"+  c #0D0907",
"@  c #090A0A",
"#  c #0B0D0E",
"$  c #0C0C0E",
"%  c #0E0F0F",
"&  c #180006",
"*  c #0E130B",
"=  c #1E170F",
"-  c #131414",
";  c #1E1010",
":  c #1A1E1E",
">  c #1D1E1E",
",  c #270603",
"<  c #2E0F0C",
"1  c #330804",
"2  c #200F14",
"3  c #3B0513",
"4  c #281B15",
"5  c #231C1B",
"6  c #351714",
"7  c #3E1410",
"8  c #3B1514",
"9  c #18220A",
"0  c #1A240C",
"q  c #1F260E",
"w  c #1C2A17",
"e  c #232F18",
"r  c #36241C",
"t  c #231E20",
"y  c #142429",
"u  c #1E262B",
"i  c #102032",
"p  c #152230",
"a  c #202225",
"s  c #222729",
"d  c #25242B",
"f  c #232828",
"g  c #272A2C",
"h  c #2B2D2E",
"j  c #312D2F",
"k  c #2B3820",
"l  c #29332C",
"z  c #343D2E",
"x  c #2C2B33",
"c  c #2E2E35",
"v  c #3D2431",
"b  c #303233",
"n  c #303A34",
"m  c #32303A",
"M  c #34333A",
"N  c #38393C",
"B  c #3A3C3D",
"V  c #3C3C3F",
"C  c #450808",
"Z  c #5A0E07",
"A  c #480012",
"S  c #741309",
"D  c #690811",
"F  c #7B0816",
"G  c #7E0B19",
"H  c #540C20",
"J  c #531E2C",
"K  c #6B1520",
"L  c #6C1520",
"P  c #711521",
"I  c #4A2F33",
"U  c #4C2F35",
"Y  c #5C2F38",
"T  c #423237",
"R  c #44303E",
"E  c #5A3030",
"W  c #543338",
"Q  c #6D243D",
"!  c #364B18",
"~  c #35412D",
"^  c #36452E",
"/  c #38472C",
"(  c #3A4B2B",
")  c #47651E",
"_  c #5B462E",
"`  c #41522F",
"'  c #455730",
"]  c #79513F",
"[  c #4D6C25",
"{  c #49612E",
"}  c #4B652E",
"|  c #5D712A",
" . c #4F6036",
".. c #566839",
"X. c #5A7237",
"o. c #5A7B31",
"O. c #5C703A",
"+. c #6B6E3F",
"@. c #76683D",
"#. c #677D3F",
"$. c #707F3D",
"%. c #263644",
"&. c #393741",
"*. c #383B47",
"=. c #313C51",
"-. c #423C42",
";. c #4E3F40",
":. c #683047",
">. c #7A304C",
",. c #3B514B",
"<. c #2F4F6F",
"1. c #2C537C",
"2. c #3B6B7C",
"3. c #404249",
"4. c #464650",
"5. c #744F40",
"6. c #5C7741",
"7. c #537D44",
"8. c #575465",
"9. c #65767B",
"0. c #9A190C",
"q. c #900E14",
"w. c #8B1813",
"e. c #83111F",
"r. c #9D1817",
"t. c #A0190D",
"y. c #A71B0D",
"u. c #AC1910",
"i. c #B21912",
"p. c #B91B11",
"a. c #BA221B",
"s. c #9A1B21",
"d. c #A41E20",
"f. c #8B2E25",
"g. c #8D3128",
"h. c #882A3D",
"j. c #973A34",
"k. c #B93D31",
"l. c #B33F3D",
"z. c #C11F0F",
"x. c #C71F10",
"c. c #CE2110",
"v. c #C4271E",
"b. c #D12413",
"n. c #D62A19",
"m. c #D02E1F",
"M. c #CA342E",
"N. c #E53D2C",
"B. c #D84037",
"V. c #D4483C",
"C. c #E64436",
"Z. c #865D4D",
"A. c #A26C54",
"S. c #8D5473",
"D. c #897171",
"F. c #A67461",
"G. c #D6544B",
"H. c #DE5E54",
"J. c #ED7067",
"K. c #F57970",
"L. c #62872D",
"P. c #638634",
"I. c #678B35",
"U. c #698937",
"Y. c #698F34",
"T. c #67823C",
"R. c #6B8C3A",
"E. c #679032",
"W. c #6D9933",
"Q. c #7B9A38",
"!. c #78AA34",
"~. c #79A238",
"^. c #688C47",
"/. c #6F944E",
"(. c #689752",
"). c #8DAE37",
"_. c #81B53F",
"`. c #ADBC3A",
"'. c #88B954",
"]. c #AE847A",
"[. c #305580",
"{. c #2F6197",
"}. c #3D6A9E",
"|. c #3A71AC",
" X c #596D8E",
".X c #487A87",
"XX c #587CAC",
"oX c #3D7CC0",
"OX c #A16D8C",
"+X c #7C9885",
"@X c #7E9A87",
"#X c #B38D92",
"$X c #B3B3BC",
"%X c #E19594",
"&X c #9CC492",
"*X c #B49BC0",
"=X c #E7BBC0",
"-X c #E9BFC3",
";X c #EEC5CA",
":X c #F1C8CD",
">X c #EFEFFB",
/* pixels */
"`.`.`.`.`.`.`.`.`.`.`.`.`.`.`.`.`.`.`.`.`.`.`.`.`.`.`.`.`.`.`.`.`.`.`.`.`.`.`.`.`.`.`.`.`.`.`.`.`.`.`.`.`.`.`.`.`.`.`.`.`.`.`.`.",
"`.`.`.`.`.`.`.`.`.`.`.`.`.`.`.`.`.`.`.`.`.`.`.`.`.`.`.`.`.`.`.`.`.`.`.`.`.`.`.`.`.`.`.`.`.`.`.`.`.`.`.`.`.`.`.`.`.`.`.`.`.`.`.`.",
"`.`.`.`.`.`.`.`.`.`.`.`.`.`.`.`.`.`.`.`.`.`.`.`.`.`.`.`.`.`.`.`.`.`.`.`.`.`.`.`.`.`.`.`.`.`.`.`.`.`.`.`.`.`.`.`.`.`.`.`.`.`.`.`.",
"`.`.`.`.`.`.`.`.`.`.`.`.`.`.`.`.`.`.`.`.`.`.`.`.`.`.`.`.`.`.`.`.`.`.`.`.`.`.`.`.`.`.`.`.`.`.`.`.`.`.`.`.`.`.`.`.`.`.`.`.`.`.`.`.",
"`.`.`.`.`.`.`.`.`.`.`.`.`.`.`.`.`.`.`.`.`.`.`.`.`.`.`.`.`.`.`.`.`.`.`.`.`.`.`.`.`.`.`.`.`.`.`.`.`.`.`.`.`.`.`.`.`.`.`.`.`.`.`.`.",
"`.`.`.`.`.`.`.`.`.`.`.`.`.`.`.`.`.`.`.`.`.`.`.`.`.`.`.`.`.`.`.`.`.`.`.`.`.`.`.`.`.`.`.`.`.`.`.`.`.`.`.`.`.`.`.`.`.`.`.`.`.`.`.`.",
"`.`.`.`.`.`.`.`.`.`.`.`.`.`.`.`.`.`.`.`.`.`.`.`.`.`.`.`.`.`.`.`.`.`.`.`.`.`.`.`.`.`.`.`.`.`.`.`.`.`.`.`.`.`.`.`.`.`.`.`.`.`.`.`.",
"`.`.`.`.`.`.`.`.`.`.`.`.`.`.`.`.`.`.`.`.`.`.`.`.`.`.`.`.`.`.`.`.`.`.`.`.`.`.`.`.`.`.`.`.`.`.`.`.`.`.`.`.`.`.`.`.`.`.`.`.`.`.`.`.",
"`.`.`.`.`.`.`.`.`.`.`.`.`.`.`.`.`.`.`.`.`.`.`.`.`.`.`.`.`.`.`.`.`.`.`.`.`.`.`.`.`.`.`.`.`.`.`.`.`.`.`.`.`.`.`.`.`.`.`.`.`.`.`.`.",
"`.`.`.`.`.`.`.`.`.).).`.`.`.`.`.`.`.`.`.`.`.`.`.`.`.`.`.`.`.`.`.`.`.`.`.`.`.`.`.).).`.`.`.`.`.`.`.`.`.`.`.`.`.`.`.`.`.`.`.`.`.`.",
"`.`.`.`.`.`.`.`.`.).).`.`.`.`.`.`.`.`.`.`.`.`.`.`.`.`.`.`.`.`.`.`.`.`.`.`.`.`.`.).).`.`.`.`.`.`.`.`.`.`.`.`.`.`.`.`.`.`.`.`.`.`.",
"`.`.`.`.`.`.`.`.`.`.`.).).`.`.`.`.`.`.`.`.`.`.`.`.`.`.`.`.`.`.`.`.`.`.`.`.`.`.`.`.`.).).`.`.`.`.`.`.`.`.`.`.`.`.`.`.`.`.`.`.`.`.",
"`.`.`.`.`.`.`.`.`.`.`.).).`.`.`.`.`.`.`.`.`.`.`.`.`.`.`.`.`.`.`.`.`.`.`.`.`.`.`.`.`.).).`.`.`.`.`.`.`.`.`.`.`.`.`.`.`.`.`.`.`.`.",
"`.`.`.`.`.`.`.`.`.`.`.`.`.`.`.`.`.`.`.`.`.`.`.`.`.`.`.`.`.`.`.`.`.`.`.`.`.`.`.`.`.`.`.`.`.`.`.`.`.`.`.`.`.`.`.`.`.`.`.`.`.`.`.`.",
"`.`.`.`.`.`.`.`.`.`.`.`.`.`.`.`.`.`.`.`.`.`.`.`.`.`.`.`.`.`.`.`.`.`.`.`.`.`.`.`.`.`.`.`.`.`.`.`.`.`.`.`.`.`.`.`.`.`.`.`.`.`.`.`.",
"`.`.`.`.`.`.`.`.`.`.`.`.`.`.`.`.`.`.`.`.`.`.`.`.`.`.`.`.`.`.`.`.`.`.`.`.`.`.`.`.`.`.`.`.`.`.`.`.`.`.`.`.`.`.`.`.`.`.`.`.`.`.`.`.",
"`.`.`.`.`.`.`.`.`.`.`.`.`.`.`.`.`.`.`.`.`.`.`.`.`.`.`.`.`.`.`.`.`.`.`.`.`.`.`.`.`.`.`.`.`.`.`.`.`.`.`.`.`.`.`.`.`.`.`.`.`.`.`.`.",
"`.`.`.`.`.`.`.`.`.`.`.`.`.`.`.`.`.`.`.`.).).`.`.`.`.`.`.`.`.`.`.`.`.`.`.`.`.`.`.`.`.`.`.`.`.`.`.`.`.`.).).`.`.`.`.`.`.`.`.`.`.`.",
"`.`.`.`.`.`.`.`.`.`.`.`.`.`.`.`.`.`.`.`.).).`.`.`.`.`.`.`.`.`.`.`.`.`.`.`.`.`.`.`.`.`.`.`.`.`.`.`.`.`.).).`.`.`.`.`.`.`.`.`.`.`.",
"`.`.`.`.`.`.`.`.`.`.`.`.`.`.`.`.`.`.).).`.`.`.`.`.`.`.`.`.`.`.`.`.`.`.`.`.`.`.`.`.`.`.`.`.`.`.`.`.).).`.`.`.`.`.`.`.`.`.`.`.`.`.",
"`.`.`.`.`.`.`.`.`.`.`.`.`.`.`.`.`.`.).).`.`.`.`.S.:.R m m m m m m m m m m R :.S.*X`.`.`.`.`.`.`.`.).).`.`.`.`.`.`.`.`.`.`.`.`.`.",
"`.`.`.`.`.`.`.`.`.`.`.`.`.`.`.`.`.`.`.`.`.`.`.OXh.L U V V V V V V V V V V U L h.OX`.`.`.`.`.`.`.`.`.`.`.`.`.`.`.`.`.`.`.`.`.`.`.",
"`.`.`.`.`.`.`.`.`.`.`.`.`.`.`.`.`.`.`.`.`.`.S.h.d.l.#X$X$X$X$X$X$X$X$X$X$X#Xl.d.h.S.`.`.`.`.`.`.`.`.`.`.`.`.`.`.`.`.`.`.`.`.`.`.",
"`.`.`.`.`.`.`.`.`.`.`.`.`.`.`.`.`.`.`.`.`.`.>.G a.H.-X>X>X>X>X>X>X>X>X>X>X-XH.a.G >.`.`.`.`.`.`.`.`.`.`.`.`.`.`.`.`.`.`.`.`.`.`.",
"`.`.`.`.`.`.`.`.`.`.`.`.`.`.`.`.`.`.`.`.`.`.>.e.M.J.;X>X>X>X>X>X>X>X>X>X>X;XJ.M.e.>.`.`.`.`.`.`.`.`.`.`.`.`.`.`.`.`.`.`.`.`.`.`.",
"`.`.`.`.`.`.`.`.`.`.`.`.`.`.`.`.`.`.`.`.`.`.h.s.B.K.:X>X>X>X>X>X>X>X>X>X>X:XK.B.s.h.OX`.`.`.`.`.`.`.`.`.`.`.`.`.`.`.`.`.`.`.`.`.",
"`.`.`.`.`.`.`.`.`.`.`.`.`.`.`.`.`.`.`.`.S.h.d.v.C.K.:X>X>X>X>X>X>X>X>X>X>X:XK.C.v.d.h.:.R m m 8.`.`.`.`.`.`.`.`.`.`.`.`.`.`.`.`.",
"`.`.`.`.`.`.`.`.`.`.`.`.`.`.`.`.`.`.`.`.Q F i.n.N.J.;X>X>X>X>X>X>X>X>X>X>X;XJ.N.n.i.F A & $ d 8.`.`.`.`.`.`.`.`.`.`.`.`.`.`.`.`.",
"`.`.`.`.`.`.`.`.`.`.`.`.`.`.`.`.`.`.8.v H F i.b.n.H.-X>X>X>X>X>X>X>X>X>X>X-XH.n.b.i.F A & d `.`.`.`.`.`.`.`.`.`.`.`.`.`.`.`.`.`.",
"`.`.`.`.`.`.`.`.`.`.`.`.`.`.`.`.`.`.M 2 3 D u.c.c.V.%X=X=X=X=X=X=X=X=X=X=X%XV.c.c.u.D 3 2 M `.`.`.`.`.`.`.`.`.`.`.`.`.`.`.`.`.`.",
"`.`.`.`.`.`.`.`.`.`.`.`.`.`.`.`.8.M N j 2 C t.c.c.m.V.G.G.G.G.G.G.G.G.G.G.V.m.c.c.t.C 2 j N M 8.`.`.`.`.`.`.`.`.`.`.`.`.`.`.`.`.",
"`.`.`.`.`.`.`.`.`.`.`.`.`.`.`.`.m % h b > 8 w.p.x.c.c.c.c.c.c.c.c.c.c.c.c.c.c.x.p.w.8 > b N M 8.`.`.`.`.`.`.`.`.`.`.`.`.`.`.`.`.",
"`.`.`.`.`.`.`.`.`.`.`.`.`.`.`.`.m . % > b I K q.p.c.c.c.c.c.c.c.c.c.c.c.c.c.c.p.q.K I b > M `.`.`.`.`.`.`.`.`.`.`.`.`.`.`.`.`.`.",
"`.`.`.`.`.`.`.`.`.`.`.`.`.`.`.`.8.d $ % h T J P r.p.x.c.c.z.y.0.0.y.z.c.c.x.p.r.P J T h % d `.`.`.`.`.`.`.`.`.`.`.`.`.`.`.`.`.`.",
"`.`.`.`.`.`.`.`.`.`.`.`.`.`.`.`.`.`.d . % t T Y P q.p.c.c.y.Z 1 1 Z y.c.c.p.q.P Y T t % . $ d 8.`.`.`.`.`.`.`.`.`.`.`.`.`.`.`.`.",
"`.`.`.`.`.`.`.`.`.`.`.`.`.`.`.`.`.`.d     % h T J K w.0.0.S ,     , S 0.0.w.K J T h %     $ d 8.`.`.`.`.`.`.`.`.`.`.`.`.`.`.`.`.",
"`.`.`.`.`.`.`.`.`.`.`.`.`.`.`.`.8.d $     . % t T I 8 1 1 , X     X , 1 1 8 I T t % .     d `.`.`.`.`.`.`.`.`.`.`.`.`.`.`.`.`.`.",
"`.`.`.`.`.`.`.`.`.`.`.`.`.`.`.`.8.m m d $     % h h %     . % - - % .     % h h %     $ d 8.`.`.`.`.`.`.`.`.`.`.`.`.`.`.`.`.`.`.",
"`.`.`.`.`.`.`.`.`.`.`.`.`.`.`.`.`.`.`.`.d     . % % .     % h B B h %     . % % .     d `.`.`.`.`.`.`.`.`.`.`.`.`.`.`.`.`.`.`.`.",
"`.`.`.`.`.`.`.`.`.`.`.`.`.`.`.`.`.`.`.`.;.4 +             % h B B h %             + 4 ;.`.`.`.`.`.`.`.`.`.`.`.`.`.`.`.`.`.`.`.`.",
"`.`.`.`.`.`.`.`.`.`.`.`.`.`.`.`.`.`.8.;.Z.] 4             . % - - % .             4 ] Z.;.8.`.`.`.`.`.`.`.`.`.`.`.`.`.`.`.`.`.`.",
"`.`.`.`.`.`.`.`.`.`.`.`.`.`.`.`.`.`.m r A.F.-.i i y w 9 O             O 9 w y i i -.F.A.r m `.`.`.`.`.`.`.`.`.`.`.`.`.`.`.`.`.`.",
"`.`.`.`.`.`.`.`.`.`.`.`.`.`.`.`.`.`.m r A.]. X{.{.2.7.) 9             9 ) 7.2.{.{. X].A.r m `.`.`.`.`.`.`.`.`.`.`.`.`.`.`.`.`.`.",
"`.`.`.`.`.`.`.`.`.`.`.`.`.`.`.`.`.`.8.;.Z.D.XXoX|..X(.L.! 0 * @ @ * 0 ! L.(..X|.oXXXD.Z.;.8.`.`.`.`.`.`.`.`.`.`.`.`.`.`.`.`.`.`.",
"`.`.`.`.`.`.`.`.`.`.`.`.`.`.`.`.`.`.`.`.;.*.}.|.<.,.6.U.L.[ k : : k [ L.U.6.,.<.|.}.*.;.`.`.`.`.`.`.`.`.`.`.`.`.`.`.`.`.`.`.`.`.",
"`.`.`.`.`.`.`.`.`.`.`.`.`.`.`.`.`.`.`.`.8.=.[.1.%.~ X.R.Y.o.` z z ` o.Y.R.X.~ %.1.[.=.8.`.`.`.`.`.`.`.`.`.`.`.`.`.`.`.`.`.`.`.`.",
"`.`.`.`.`.`.`.`.`.`.`.`.`.`.`.`.`.`.`.`.`.`.=.p u / P.Y.{ `  ..... .` { Y.P./ u p =.`.`.`.`.`.`.`.`.`.`.`.`.`.`.`.`.`.`.`.`.`.`.",
"`.`.`.`.`.`.`.`.`.`.`.`.`.`.`.`.`.`.`.`.`.`.m @ : ( E.W.} ' O.#.#.O.' } W.E.( : @ m `.`.`.`.`.`.`.`.`.`.`.`.`.`.`.`.`.`.`.`.`.`.",
"`.`.`.`.`.`.`.`.`.`.).).`.`.`.`.`.`.`.`.`.`.m @ : ( E.!.W.I.T.#.#.T.I.W.!.E.( : @ m `.`.`.`.`.`.`.`.`.).).`.`.`.`.`.`.`.`.`.`.`.",
"`.`.`.`.`.`.`.`.`.`.).).`.`.`.`.`.`.`.`.`.`.8.x a ^ /.'._.~.$.+.+.$.~._.'./.^ a x 8.`.`.`.`.`.`.`.`.`.).).`.`.`.`.`.`.`.`.`.`.`.",
"`.`.`.`.`.`.`.`.`.`.`.`.).).`.`.`.`.`.`.`.`.`.`.x n @X&X'.Q.@.5.5.@.Q.'.&X@Xn x `.`.`.`.`.`.`.`.`.).).`.`.`.`.`.`.`.`.`.`.`.`.`.",
"`.`.`.`.`.`.`.`.`.`.`.`.).).`.`.`.`.`.`.`.`.`.`.m s 9.+X^.| _ E E _ | ^.+X9.s m `.`.`.`.`.`.`.`.`.).).`.`.`.`.`.`.`.`.`.`.`.`.`.",
"`.`.`.`.`.`.`.`.`.`.`.`.`.`.`.`.`.`.`.`.`.`.`.`.m # s l e q = ; ; = q e l s # m `.`.`.`.`.`.`.`.`.`.`.`.`.`.`.`.`.`.`.`.`.`.`.`.",
"`.`.`.`.`.`.`.`.`.`.`.`.`.`.`.`.`.`.`.`.`.`.`.`.8.d $ o < < o     o < < o $ d 8.`.`.`.`.`.`.`.`.`.`.`.`.`.`.`.`.`.`.`.`.`.`.`.`.",
"`.`.`.`.`.`.`.`.`.`.`.`.`.`.`.`.`.`.`.`.`.`.`.`.`.`.d < f.f.<     < f.f.< d `.`.`.`.`.`.`.`.`.`.`.`.`.`.`.`.`.`.`.`.`.`.`.`.`.`.",
"`.`.`.`.`.`.`.`.`.`.`.`.`.`.`.`.`.`.`.`.`.`.`.`.`.`.m 7 k.k.7     7 k.k.7 m `.`.`.`.`.`.`.`.`.`.`.`.`.`.`.`.`.`.`.`.`.`.`.`.`.`.",
"`.`.`.`.`.`.`.`.`.`.`.`.`.`.`.`.`.`.`.`.`.`.`.`.`.`.m 7 k.k.7     7 k.k.7 m `.`.`.`.`.`.`.`.`.`.`.`.`.`.`.`.`.`.`.`.`.`.`.`.`.`.",
"`.`.`.`.`.`.`.`.`.`.`.`.`.`.`.`.`.`.`.`.`.`.`.`.`.`.8.W j.g.6 @ @ 6 g.j.W 8.`.`.`.`.`.`.`.`.`.`.`.`.`.`.`.`.`.`.`.`.`.`.`.`.`.`.",
"`.`.`.`.`.`.`.`.`.`.`.`.`.`.`.`.`.`.`.`.`.`.`.`.`.`.`.`.W 6 5 : : 5 6 W `.`.`.`.`.`.`.`.`.`.`.`.`.`.`.`.`.`.`.`.`.`.`.`.`.`.`.`.",
"`.`.`.`.`.`.`.`.`.`.`.`.`.`.`.`.`.`.`.`.`.`.`.`.`.`.`.`.8.c g f f g c 8.`.`.`.`.`.`.`.`.`.`.`.`.`.`.`.`.`.`.`.`.`.`.`.`.`.`.`.`.",
"`.`.`.`.`.`.`.`.`.`.`.`.`.`.`.`.`.`.`.`.`.`.`.`.`.`.`.`.`.`.3.f f 3.`.`.`.`.`.`.`.`.`.`.`.`.`.`.`.`.`.`.`.`.`.`.`.`.`.`.`.`.`.`.",
"`.`.`.`.`.`.`.`.`.`.`.`.`.`.`.`.`.`.`.`.`.`.`.`.`.`.`.`.`.`.4.: : 4.`.`.`.`.`.`.`.`.`.`.`.`.`.`.`.`.`.`.`.`.`.`.`.`.`.`.`.`.`.`.",
"`.`.`.`.`.`.`.`.`.`.`.`.`.`.`.`.`.`.`.`.`.`.`.`.`.`.`.`.`.`.&.@ @ &.`.`.`.`.`.`.`.`.`.`.`.`.`.`.`.`.`.`.`.`.`.`.`.`.`.`.`.`.`.`.",
"`.`.`.`.`.`.`.`.`.`.`.`.`.`.`.`.`.`.`.`.`.`.`.`.`.`.`.`.`.`.m     m `.`.`.`.`.`.`.`.`.`.`.`.`.`.`.`.`.`.`.`.`.`.`.`.`.`.`.`.`.`."
};
