/* XPM */
static char *result[] = {
/* columns rows colors chars-per-pixel */
"64 64 203 2 ",
"   c #010101",
".  c #0F0403",
"X  c #070909",
"o  c #0C0D0D",
"O  c #150508",
"+  c #12100F",
"@  c #141515",
"#  c #1C1311",
"$  c #1A1E11",
"%  c #1A1D1D",
"&  c #270703",
"*  c #2E0F0B",
"=  c #340905",
"-  c #34010C",
";  c #3C0F10",
":  c #261916",
">  c #351512",
",  c #3E1410",
"<  c #3A1A17",
"1  c #391E1B",
"2  c #19230B",
"3  c #1C2A17",
"4  c #2A201F",
"5  c #36261C",
"6  c #363919",
"7  c #0C1826",
"8  c #261E21",
"9  c #192326",
"0  c #132334",
"q  c #222427",
"w  c #25242B",
"e  c #232828",
"r  c #2B2C2E",
"t  c #392D28",
"y  c #3C312B",
"u  c #2D2D33",
"i  c #3C2E32",
"p  c #2D3030",
"a  c #3B3232",
"s  c #33313A",
"d  c #3A3B3D",
"f  c #560A1A",
"g  c #401B1B",
"h  c #561510",
"j  c #77160C",
"k  c #660514",
"l  c #770717",
"z  c #7B0816",
"x  c #7A1A10",
"c  c #512519",
"v  c #65231C",
"b  c #6D1A2A",
"n  c #721C28",
"m  c #4A2828",
"M  c #553129",
"N  c #4A3A32",
"B  c #473E3E",
"V  c #533332",
"C  c #5B3733",
"Z  c #573836",
"A  c #7C242E",
"S  c #732C31",
"D  c #663B37",
"F  c #354918",
"G  c #3E4730",
"H  c #47651E",
"J  c #50423A",
"K  c #455531",
"L  c #4A5932",
"P  c #654E35",
"I  c #774239",
"U  c #79593E",
"Y  c #546C33",
"T  c #7D7A35",
"R  c #1A3149",
"E  c #1C3958",
"W  c #253747",
"Q  c #393642",
"!  c #3B3D44",
"~  c #7A304C",
"^  c #773A51",
"/  c #2F4F68",
"(  c #234972",
")  c #29527D",
"_  c #3B6B7C",
"`  c #404244",
"'  c #47494B",
"]  c #484953",
"[  c #584655",
"{  c #604240",
"}  c #6A4548",
"|  c #7B514A",
" . c #557645",
".. c #46596D",
"X. c #575465",
"o. c #685D62",
"O. c #566B7B",
"+. c #67696C",
"@. c #6B6A7C",
"#. c #83180D",
"$. c #9A190C",
"%. c #900E14",
"&. c #821A17",
"*. c #9C1313",
"=. c #A51A0D",
"-. c #AC1910",
";. c #B21912",
":. c #B91B11",
">. c #85251B",
",. c #A42417",
"<. c #861422",
"1. c #8B2E25",
"2. c #943329",
"3. c #B23428",
"4. c #A23D3B",
"5. c #B93D31",
"6. c #B8393B",
"7. c #C71F10",
"8. c #CE2110",
"9. c #D12413",
"0. c #D52B1A",
"q. c #D82D1C",
"w. c #C6362B",
"e. c #D53324",
"r. c #D23C35",
"t. c #E53D2C",
"y. c #AE413A",
"u. c #C7463B",
"i. c #D8473A",
"p. c #ED4635",
"a. c #903347",
"s. c #8F4E48",
"d. c #825644",
"f. c #91574A",
"g. c #AE534E",
"h. c #A36C55",
"j. c #A66A59",
"k. c #B96C5A",
"l. c #AC755C",
"z. c #AF795E",
"x. c #875462",
"c. c #8D5473",
"v. c #B67560",
"b. c #D0554D",
"n. c #E24C41",
"m. c #F75242",
"M. c #F65C4E",
"N. c #ED655A",
"B. c #F56F65",
"V. c #F57970",
"C. c #658A2B",
"Z. c #698D2B",
"A. c #658538",
"S. c #6D9933",
"D. c #789736",
"F. c #77A933",
"G. c #7DB237",
"H. c #72AA51",
"J. c #8DAE37",
"K. c #A2B739",
"L. c #ADBC3A",
"P. c #B58565",
"I. c #C7866A",
"U. c #C68D70",
"Y. c #C99572",
"T. c #D99272",
"R. c #DE9976",
"E. c #D79B78",
"W. c #E09C78",
"Q. c #2E6294",
"!. c #34669D",
"~. c #336AA4",
"^. c #3275B2",
"/. c #415D85",
"(. c #4D6894",
"). c #797184",
"_. c #4275AC",
"`. c #227EC0",
"'. c #C07C87",
"]. c #5B9789",
"[. c #5687B6",
"{. c #5695CB",
"}. c #93888E",
"|. c #8D8E95",
" X c #B29093",
".X c #9A9AA1",
"XX c #B3B3BC",
"oX c #C49B9E",
"OX c #E9918E",
"+X c #E8AB82",
"@X c #F0B488",
"#X c #C4A5A9",
"$X c #CDB7BE",
"%X c #F1A9A9",
"&X c #BDB7CC",
"*X c #E9BFC3",
"=X c #BCC9DB",
"-X c #C9CAD3",
";X c #EEC5CA",
":X c #F1C8CD",
">X c #F0D2D8",
",X c #E9E4EF",
"<X c #EFEFFB",
/* pixels */
"L.L.L.L.L.L.L.L.L.L.L.L.L.L.L.L.L.L.L.L.L.L.L.L.L.L.L.L.L.L.L.L.L.L.L.L.L.L.L.L.L.L.L.L.L.L.L.L.L.L.L.L.L.L.L.L.L.L.L.L.L.L.L.L.",
"L.L.L.L.L.L.L.L.L.L.L.L.L.L.L.L.L.L.L.L.L.L.L.L.L.L.L.L.L.L.L.L.L.L.L.L.L.L.L.L.L.L.L.L.L.L.L.L.L.L.L.L.L.L.L.L.L.L.L.L.L.L.L.L.",
"L.L.L.L.L.L.L.L.L.L.L.L.L.L.L.L.L.L.L.L.L.L.L.L.L.L.L.L.L.L.L.L.L.L.L.L.L.L.L.L.L.L.L.L.L.L.L.L.L.L.L.L.L.L.L.L.L.L.L.L.L.L.L.L.",
"L.L.L.L.L.L.L.L.L.L.L.L.L.L.L.L.L.L.L.L.L.L.L.L.L.L.L.L.L.L.L.L.L.L.L.L.L.L.L.L.L.L.L.L.L.L.L.L.L.L.L.L.L.L.L.L.L.L.L.L.L.L.L.L.",
"L.L.L.L.L.L.L.L.L.L.L.L.L.L.L.L.L.L.L.L.L.L.L.L.L.L.L.L.L.L.L.L.L.L.L.L.L.L.L.L.L.L.L.L.L.L.L.L.L.L.L.L.L.L.L.L.L.L.L.L.L.L.L.L.",
"L.L.L.L.L.L.L.L.L.L.L.L.L.L.L.L.L.L.L.L.L.L.L.L.L.L.L.L.L.L.L.L.L.L.L.L.L.L.L.L.L.L.L.L.L.L.L.L.L.L.L.L.L.L.L.L.L.L.L.L.L.L.L.L.",
"L.L.L.L.L.L.L.L.L.L.L.L.L.L.L.L.L.L.L.L.L.L.L.L.L.L.L.L.L.L.L.L.L.L.L.L.L.L.L.L.L.L.L.L.L.L.L.L.L.L.L.L.L.L.L.L.L.L.L.L.L.L.L.L.",
"L.L.L.L.L.L.L.L.L.L.L.L.L.L.L.L.L.L.L.L.L.L.L.L.L.L.L.L.L.L.L.L.L.L.L.L.L.L.L.L.L.L.L.L.L.L.L.L.L.L.L.L.L.L.L.L.L.L.L.L.L.L.L.L.",
"L.L.L.L.L.L.L.L.L.L.L.L.L.L.L.L.L.L.L.L.L.L.L.L.L.L.L.L.L.L.L.L.L.L.L.L.L.L.L.L.L.L.L.L.L.L.L.L.L.L.L.L.L.L.L.L.L.L.L.L.L.L.L.L.",
"L.L.L.L.L.L.L.L.L.J.J.L.L.L.L.L.L.L.L.L.L.L.L.L.L.L.L.L.L.L.L.L.L.L.L.L.L.L.L.L.J.J.L.L.L.L.L.L.L.L.L.L.L.L.L.L.L.L.L.L.L.L.L.L.",
"L.L.L.L.L.L.L.L.L.J.J.L.L.L.L.L.L.L.L.L.L.L.L.L.L.L.L.L.L.L.L.L.L.L.L.L.L.L.L.L.J.J.L.L.L.L.L.L.L.L.L.L.L.L.L.L.L.L.L.L.L.L.L.L.",
"L.L.L.L.L.L.L.L.L.L.L.J.J.L.L.L.L.L.L.L.L.L.L.L.L.L.L.L.L.L.L.L.L.L.L.L.L.L.L.L.L.L.J.J.L.L.L.L.L.L.L.L.L.L.L.L.L.L.L.L.L.L.L.L.",
"L.L.L.L.L.L.L.L.L.L.L.J.J.L.L.L.L.L.L.L.L.L.L.L.L.L.L.L.L.L.L.L.L.L.L.L.L.L.L.L.L.L.J.J.L.L.L.L.L.L.L.L.L.L.L.L.L.L.L.L.L.L.L.L.",
"L.L.L.L.L.L.L.L.L.L.L.L.L.L.L.L.L.L.L.L.L.L.L.L.L.L.L.L.L.L.L.L.L.L.L.L.L.L.L.L.L.L.L.L.L.L.L.L.L.L.L.L.L.L.L.L.L.L.L.L.L.L.L.L.",
"L.L.L.L.L.L.L.L.L.L.L.L.L.L.L.L.L.L.L.L.L.L.L.L.L.L.L.L.L.L.L.L.L.L.L.L.L.L.L.L.L.L.L.L.L.L.L.L.L.L.L.L.L.L.L.L.L.L.L.L.L.L.L.L.",
"L.L.L.L.L.L.L.L.L.L.L.L.L.L.L.L.L.L.L.L.L.L.L.L.L.L.L.L.L.L.L.L.L.L.L.L.L.L.L.L.L.L.L.L.L.L.L.L.L.L.L.L.L.L.L.L.L.L.L.L.L.L.L.L.",
"L.L.L.L.L.L.L.L.L.L.L.L.L.L.L.L.L.L.L.L.L.L.L.L.L.L.L.L.L.L.L.L.L.L.L.L.L.L.L.L.L.L.L.L.L.L.L.L.L.L.L.L.L.L.L.L.L.L.L.L.L.L.L.L.",
"L.L.L.L.L.L.L.L.L.L.L.L.L.L.L.L.L.L.L.L.J.J.L.L.L.L.L.L.L.L.L.L.L.L.L.L.L.L.L.L.L.L.L.L.L.L.L.L.L.L.L.J.J.L.L.L.L.L.L.L.L.L.L.L.",
"L.L.L.L.L.L.L.L.L.L.L.L.L.L.L.L.L.L.L.L.J.J.L.L.L.L.L.L.L.L.L.L.L.L.L.L.L.L.L.L.L.L.L.L.L.L.L.L.L.L.L.J.J.L.L.L.L.L.L.L.L.L.L.L.",
"L.L.L.L.L.L.L.L.L.L.L.L.L.L.L.L.L.L.J.J.L.L.L.L.L.L.L.L.L.L.L.L.L.L.L.L.L.L.L.L.L.L.L.L.L.L.L.L.L.J.J.L.L.L.L.L.L.L.L.L.L.L.L.L.",
"L.L.L.L.L.L.L.L.L.L.L.L.L.L.L.L.L.L.J.J.L.L.X.s s s s s s s s s s s s s s X.L.L.L.L.L.L.L.L.L.L.L.J.J.L.L.L.L.L.L.L.L.L.L.L.L.L.",
"L.L.L.L.L.L.L.L.L.L.L.L.L.L.L.L.L.L.L.L.L.L.u @ u ! d B Q B Q B Q ! d u @ u L.L.L.L.L.L.L.L.L.L.L.L.L.L.L.L.L.L.L.L.L.L.L.L.L.L.",
"L.L.L.L.L.L.L.L.L.L.L.L.L.L.L.L.L.L.L.L.X.u 9 ` |.XXXXXXXXXXXXXXXXXXXX|.` w w X.L.L.L.L.L.L.L.L.L.L.L.L.L.L.L.L.L.L.L.L.L.L.L.L.",
"L.L.L.L.L.L.L.L.L.L.L.L.L.L.L.L.L.L.L.L.s @ ' ).-X<X<X<X<X<X<X<X<X<X<X-X).` 8 Q L.L.L.L.L.L.L.L.L.L.L.L.L.L.L.L.L.L.L.L.L.L.L.L.",
"L.L.L.L.L.L.L.L.L.L.L.L.L.L.L.L.L.L.L.L.s p |.-X,X<X<X<X<X<X<X<X<X<X<X,X-X|.` ] L.L.L.L.L.L.L.L.L.L.L.L.L.L.L.L.L.L.L.L.L.L.L.L.",
"L.L.L.L.L.L.L.L.L.L.L.L.L.L.L.L.L.L.L.L.m } &X<X<X,X>X:X:X*X:X:X:X>X<X<X<X-XO...L.L.L.L.L.L.L.L.L.L.L.L.L.L.L.L.L.L.L.L.L.L.L.L.",
"L.L.L.L.L.L.L.L.L.L.L.L.L.L.L.L.L.L.X.m x g.$X<X<X>XOXV.V.V.V.R.V.OX>X<X<X=X[.Q./ [ ^ c.L.L.L.L.L.L.L.L.L.L.L.L.L.L.L.L.L.L.L.L.",
"L.L.L.L.L.L.L.L.L.L.L.L.L.L.L.L.L.L.w = $.n.OX;X:X%XB.m.m.m.m.m.m.B.%X:X;X&X{.^.Q.Q b a.L.L.L.L.L.L.L.L.L.L.L.L.L.L.L.L.L.L.L.L.",
"L.L.L.L.L.L.L.L.L.L.L.L.L.L.X.s s w o = $.0.i.b.B.B.M.p.m.m.p.m.m.M.B.V.V.'.[.`.^./.g.6.a.c.L.L.L.L.L.L.L.L.L.L.L.L.L.L.L.L.L.L.",
"L.L.L.L.L.L.L.L.L.L.L.L.L.L.X.w o     = $.8.8.0.p.p.p.p.p.p.p.p.p.p.p.t.p.g.).(.(.).b.u.<.~ L.L.L.L.L.L.L.L.L.L.L.L.L.L.L.L.L.L.",
"L.L.L.L.L.L.L.L.L.L.L.L.L.L.L.L.w     = $.8.8.9.9.q.q.q.e.q.q.q.q.q.q.q.0.e.6.4.4.6.n.r.<.~ L.L.L.L.L.L.L.L.L.L.L.L.L.L.L.L.L.L.",
"L.L.L.L.L.L.L.L.L.L.L.L.L.L.L.L.s + X & j =.:.8.8.8.8.8.9.9.8.8.9.9.8.8.7.8.8.7.7.0.p.r.<.~ L.L.L.L.L.L.L.L.L.L.L.L.L.L.L.L.L.L.",
"L.L.L.L.L.L.L.L.L.L.L.L.L.L.X.s d r o . & h =.7.8.8.8.8.8.8.8.9.8.8.8.8.8.8.8.8.7.q.t.r.<.a.L.L.L.L.L.L.L.L.L.L.L.L.L.L.L.L.L.L.",
"L.L.L.L.L.L.L.L.L.L.L.L.L.L.X.s d r o     & j $.-.:.7.8.8.8.8.9.8.7.:.:.7.8.8.9.0.e.r.6.a.c.L.L.L.L.L.L.L.L.L.L.L.L.L.L.L.L.L.L.",
"L.L.L.L.L.L.L.L.L.L.L.L.L.L.L.L.s o X     . & h k %.:.8.8.8.7.7.8.:.%.%.:.9.8.0.t.r.,.a.L.L.L.L.L.L.L.L.L.L.L.L.L.L.L.L.L.L.L.L.",
"L.L.L.L.L.L.L.L.L.L.L.L.L.L.L.L.w             O - k *.;.;.;.;.;.;.*.l l *.;.;.:.r.6.a.c.L.L.L.L.L.L.L.L.L.L.L.L.L.L.L.L.L.L.L.L.",
"L.L.L.L.L.L.L.L.L.L.L.L.L.L.X.w o               . - k l z z z l z l k k l l l <.z a.L.L.L.L.L.L.L.L.L.L.L.L.L.L.L.L.L.L.L.L.L.L.",
"L.L.L.L.L.L.L.L.L.L.L.L.L.L.X.e o             . : c S A f f n 1.A n f f n <.A A b ^ L.L.L.L.L.L.L.L.L.L.L.L.L.L.L.L.L.L.L.L.L.L.",
"L.L.L.L.L.L.L.L.L.L.L.L.L.L.L.L.w             : U l.I.h.c 1 s.k.k.s.1 g s.k.k.g.s.x.L.L.L.L.L.L.L.L.L.L.L.L.L.L.L.L.L.L.L.L.L.L.",
"L.L.L.L.L.L.L.L.L.L.L.L.L.L.L.L.X.s s w o     5 h.W.@XY.P C l.T.R.z.m V z.E.I.j.I } L.L.L.L.L.L.L.L.L.L.L.L.L.L.L.L.L.L.L.L.L.L.",
"L.L.L.L.L.L.L.L.L.L.L.L.L.L.L.L.L.L.L.L.w     5 h.W.@XW.P.P.I.R.+XY.d.| U.OXh.I t : u X.L.L.L.L.L.L.L.L.L.L.L.L.L.L.L.L.L.L.L.L.",
"L.L.L.L.L.L.L.L.L.L.L.L.L.L.L.L.L.L.L.L.s     : f.U.E.E.T.T.T.R.+XR.j.j.U.I.f.C :     s L.L.L.L.L.L.L.L.L.L.L.L.L.L.L.L.L.L.L.L.",
"L.L.L.L.L.L.L.L.L.L.L.L.L.L.L.L.L.L.L.L.s     : I f.f.l.I.T.T.T.R.T.I.v.j.f.d.D w @ X s L.L.L.L.L.L.L.L.L.L.L.L.L.L.L.L.L.L.L.L.",
"L.L.L.L.L.L.L.L.L.L.L.L.L.L.L.L.L.L.L.L.s $ 2 6 P U U d.h.k.l.l.l.l.h.f.D M M c M 1 O s L.L.L.L.L.L.L.L.L.L.L.L.L.L.L.L.L.L.L.L.",
"L.L.L.L.L.L.L.L.L.L.L.L.L.L.L.L.L.L.X.s d G Y C.D.D.D.T D S Z J J N t < : # # g &.x & s L.L.L.L.L.L.L.L.L.L.L.L.L.L.L.L.L.L.L.L.",
"L.L.L.L.L.L.L.L.L.L.L.L.L.L.L.L.L.L.s @ J  .A.S.F.G.J.Z.c f w e e 9 @ + : 5 5 c #.j > s L.L.L.L.L.L.L.L.L.L.L.L.L.L.L.L.L.L.L.L.",
"L.L.L.L.L.L.L.L.L.L.L.L.L.L.L.L.L.L.s @ L Y G Y S.G.G.C.6 & : e e q % y | h.h.d.c > i d s X.L.L.L.L.L.L.L.L.L.L.L.L.L.L.L.L.L.L.",
"L.L.L.L.L.L.L.L.L.L.L.L.L.L.L.L.L.L.s $ Y Y K L S.G.H. .3 X % e e e e J l.T.R.l.5 @ d d @ s L.L.L.L.L.L.L.L.L.L.L.L.L.L.L.L.L.L.",
"L.L.L.L.L.L.L.L.L.L.L.L.L.L.L.L.L.L.s $ L A.Z.S.F.H.].Q.0 X % e e e e J z.R.+XP.t @ d d @ s L.L.L.L.L.L.L.L.L.L.L.L.L.L.L.L.L.L.",
"L.L.L.L.L.L.L.L.L.L.J.J.L.L.L.L.L.L.Q $ K Y S.F.Z.A._ ) R 0 W W 9 % % y | z.P.h.M 1 a u o r L.L.L.L.J.J.L.L.L.L.L.L.L.L.L.L.L.L.",
"L.L.L.L.L.L.L.L.L.L.J.J.L.L.L.L.L.L.' % $ F C.C.F 3 9 R Q.Q.!./.0 o X o 4 5 t M 2.2.1 o X @ ! ] ] ).J.J.L.L.L.L.L.L.L.L.L.L.L.L.",
"L.L.L.L.L.L.L.L.L.L.L.L.J.J.L.L.L.L.! @ X 2 H H 2     7 ( ~.^.~.E 0 0 7 X X   , 5.u.,     X @ % 7 ! L.L.L.L.L.L.L.L.L.L.L.L.L.L.",
"L.L.L.L.L.L.L.L.L.L.L.L.J.J.L.L.@.! % X   X 2 2 X     X 7 E ~.^.!.!.Q.( 7     , 5.u.,       X o X % ! ).K.L.L.L.L.L.L.L.L.L.L.L.",
"L.L.L.L.L.L.L.L.L.L.L.L.L.L.L.L.! : * = = = = = = = , * . 7 ( !.~._._./.a * . * >.2.v ; = < i i > * : Q L.L.L.L.L.L.L.L.L.L.L.L.",
"L.L.L.L.L.L.L.L.L.L.L.L.L.L.@.` % * j $.$.$.$.$.$.,.3.1.* X 7 R / ....o.4.1.* . * v 2.3.,.4. X X4.j * % ! @.L.L.L.L.L.L.L.L.L.L.",
"L.L.L.L.L.L.L.L.L.L.L.L.L.L.] % @ > x ,.u.i.e.9.q.e.5.1.*     # Z | | s.y.2.5 o X g g.N.t.b.*X$Xg.j > @ % ] L.L.L.L.L.L.L.L.L.L.",
"L.L.L.L.L.L.L.L.L.L.L.L.L.L.Q @ p y > C  XOXN.p.p.w.v * .     > 4.b.b.y.v 5 a r o a  X%XN.V.*X$X{ > i p @ Q L.L.L.L.L.L.L.L.L.L.",
"L.L.L.L.L.L.L.L.L.L.L.L.L.L.s @ d d < V }.#XOXN.b.2.h & # o X * 1.5.5.1.* + d B < V }.#XT.OX#X}.V < B d @ s L.L.L.L.L.L.L.L.L.L.",
"L.L.L.L.L.L.L.L.L.L.L.L.L.L.s @ d ^ 1.x Z +.#XoXD h #.>.V r + . * , , * . @ d J >.>.V o.#X#Xo.V >.>.{ d @ s L.L.L.L.L.L.L.L.L.L.",
"L.L.L.L.L.L.L.L.L.L.L.L.L.L.X.s s Z 1.1.1 ` .X.XJ < >.1.Z d s s p s s s s s d C 2.>.< ` .X.XQ g >.1.Z s s X.L.L.L.L.L.L.L.L.L.L.",
"L.L.L.L.L.L.L.L.L.L.L.L.L.L.L.L.s 4 Z P B ' +.+.' B { Z q a K.K.K.K.K.K.K.K.s q Z J B ' +.+.' B { Z q a L.L.L.L.L.L.L.L.L.L.L.L.",
"L.L.L.L.L.L.L.L.L.L.L.L.L.L.L.L.X.s d d d d d d d d d d s K.K.K.K.K.K.K.K.K.K.a d d B d d d d d d d s X.L.L.L.L.L.L.L.L.L.L.L.L.",
"L.L.L.L.L.L.L.L.L.L.L.L.L.L.L.L.L.L.s @ @ @ @ @ @ @ @ s K.K.K.K.K.K.K.K.K.K.K.K.s @ @ @ @ @ @ @ @ s L.L.L.L.L.L.L.L.L.L.L.L.L.L.",
"L.L.L.L.L.L.L.L.L.L.L.L.L.L.L.L.L.L.s                 s K.K.K.K.K.K.K.K.K.K.K.K.s                 s L.L.L.L.L.L.L.L.L.L.L.L.L.L."
};
