/* XPM */
static char *result[] = {
/* columns rows colors chars-per-pixel */
"64 64 206 2 ",
"   c #010101",
".  c #0F0403",
"X  c #070909",
"o  c #0C0D0D",
"O  c #150508",
"+  c #12100F",
"@  c #141515",
"#  c #1C1311",
"$  c #1A1E11",
"%  c #1A1D1D",
"&  c #270703",
"*  c #2E0F0B",
"=  c #340905",
"-  c #34010C",
";  c #3C0F10",
":  c #261916",
">  c #351512",
",  c #3E1410",
"<  c #3A1A17",
"1  c #391E1B",
"2  c #19230B",
"3  c #1C2A17",
"4  c #2A201F",
"5  c #36261C",
"6  c #363919",
"7  c #0C1826",
"8  c #192326",
"9  c #132334",
"0  c #222427",
"q  c #25242B",
"w  c #232828",
"e  c #2B2C2E",
"r  c #392D28",
"t  c #35312E",
"y  c #2D2D33",
"u  c #3C2E32",
"i  c #3B3232",
"p  c #33313A",
"a  c #3A3B3D",
"s  c #560A1A",
"d  c #401B1B",
"f  c #561510",
"g  c #77160C",
"h  c #660514",
"j  c #770717",
"k  c #7B0816",
"l  c #7A1A10",
"z  c #512519",
"x  c #65231C",
"c  c #6D1A2A",
"v  c #721C28",
"b  c #4A2828",
"n  c #553129",
"m  c #4A3A32",
"M  c #473E3E",
"N  c #533332",
"B  c #5B3733",
"V  c #573836",
"C  c #7C242E",
"Z  c #732C31",
"A  c #663B37",
"S  c #354918",
"D  c #3E4730",
"F  c #47651E",
"G  c #50423A",
"H  c #455531",
"J  c #4A5932",
"K  c #654E35",
"L  c #774239",
"P  c #79593E",
"I  c #546C33",
"U  c #7D7A35",
"Y  c #1A3149",
"T  c #1C3958",
"R  c #253747",
"E  c #393642",
"W  c #3B3D44",
"Q  c #7A304C",
"!  c #773A51",
"~  c #2F4F68",
"^  c #234972",
"/  c #29527D",
"(  c #3B6B7C",
")  c #404244",
"_  c #47494B",
"`  c #484953",
"'  c #584655",
"]  c #604240",
"[  c #6A4548",
"{  c #7B514A",
"}  c #557645",
"|  c #46596D",
" . c #575465",
".. c #685D62",
"X. c #566B7B",
"o. c #67696C",
"O. c #6B6A7C",
"+. c #9A190C",
"@. c #900E14",
"#. c #821A17",
"$. c #9C1313",
"%. c #A51A0D",
"&. c #B21912",
"*. c #B91B11",
"=. c #85251B",
"-. c #A42417",
";. c #BA221B",
":. c #861422",
">. c #8B2E25",
",. c #943329",
"<. c #943433",
"1. c #B23428",
"2. c #A23D3B",
"3. c #B93D31",
"4. c #B8393B",
"5. c #C11F0F",
"6. c #C71F10",
"7. c #CE2110",
"8. c #D12413",
"9. c #D52B1A",
"0. c #D82D1C",
"q. c #C6362B",
"w. c #D53324",
"e. c #D23C35",
"r. c #E53D2C",
"t. c #AE413A",
"y. c #C7463B",
"u. c #D8473A",
"i. c #ED4635",
"p. c #903347",
"a. c #8F4E48",
"s. c #825644",
"d. c #91574A",
"f. c #AE534E",
"g. c #93694D",
"h. c #A36C55",
"j. c #A66A59",
"k. c #B96C5A",
"l. c #AC755C",
"z. c #AF795E",
"x. c #8D5473",
"c. c #B67560",
"v. c #D0554D",
"b. c #E24C41",
"n. c #F75242",
"m. c #F65C4E",
"M. c #ED655A",
"N. c #EB6E65",
"B. c #F56F65",
"V. c #F57970",
"C. c #658A2B",
"Z. c #698D2B",
"A. c #658538",
"S. c #6D9933",
"D. c #789736",
"F. c #77A933",
"G. c #7DB237",
"H. c #72AA51",
"J. c #8DAE37",
"K. c #A2B739",
"L. c #ADBC3A",
"P. c #B58565",
"I. c #C7866A",
"U. c #C68D70",
"Y. c #C99572",
"T. c #D99272",
"R. c #DE9976",
"E. c #D79B78",
"W. c #E09C78",
"Q. c #2E6294",
"!. c #34669D",
"~. c #336AA4",
"^. c #3275B2",
"/. c #415D85",
"(. c #4D6894",
"). c #786783",
"_. c #7C7F84",
"`. c #4275AC",
"'. c #227EC0",
"]. c #A4718F",
"[. c #C07C87",
"{. c #5B9789",
"}. c #5687B6",
"|. c #5695CB",
" X c #93888E",
".X c #8D8E95",
"XX c #94959C",
"oX c #B29093",
"OX c #9A9AA1",
"+X c #B3B3BC",
"@X c #C49B9E",
"#X c #E9918E",
"$X c #E8AB82",
"%X c #F0B488",
"&X c #C4A5A9",
"*X c #CDB7BE",
"=X c #F1A9A9",
"-X c #BDB7CC",
";X c #E9BFC3",
":X c #BCC9DB",
">X c #C9CAD3",
",X c #EEC5CA",
"<X c #F1C8CD",
"1X c #F0D2D8",
"2X c #E9E4EF",
"3X c #EFEFFB",
/* pixels */
"L.L.L.L.L.L.L.L.L.L.L.L.L.L.L.L.L.L.L.L.L.L.L.L.L.L.L.L.L.L.L.L.L.L.L.L.L.L.L.L.L.L.L.L.L.L.L.L.L.L.L.L.L.L.L.L.L.L.L.L.L.L.L.L.",
"L.L.L.L.L.L.L.L.L.L.L.L.L.L.L.L.L.L.L.L.L.L.L.L.L.L.L.L.L.L.L.L.L.L.L.L.L.L.L.L.L.L.L.L.L.L.L.L.L.L.L.L.L.L.L.L.L.L.L.L.L.L.L.L.",
"L.L.L.L.L.L.L.L.L.L.L.L.L.L.L.L.L.L.L.L.L.L.L.L.L.L.L.L.L.L.L.L.L.L.L.L.L.L.L.L.L.L.L.L.L.L.L.L.L.L.L.L.L.L.L.L.L.L.L.L.L.L.L.L.",
"L.L.L.L.L.L.L.L.L.L.L.L.L.L.L.L.L.L.L.L.L.L.L.L.L.L.L.L.L.L.L.L.L.L.L.L.L.L.L.L.L.L.L.L.L.L.L.L.L.L.L.L.L.L.L.L.L.L.L.L.L.L.L.L.",
"L.L.L.L.L.L.L.L.L.L.L.L.L.L.L.L.L.L.L.L.L.L.L.L.L.L.L.L.L.L.L.L.L.L.L.L.L.L.L.L.L.L.L.L.L.L.L.L.L.L.L.L.L.L.L.L.L.L.L.L.L.L.L.L.",
"L.L.L.L.L.L.L.L.L.L.L.L.L.L.L.L.L.L.L.L.L.L.L.L.L.L.L.L.L.L.L.L.L.L.L.L.L.L.L.L.L.L.L.L.L.L.L.L.L.L.L.L.L.L.L.L.L.L.L.L.L.L.L.L.",
"L.L.L.L.L.L.L.L.L.L.L.L.L.L.L.L.L.L.L.L.L.L.L.L.L.L.L.L.L.L.L.L.L.L.L.L.L.L.L.L.L.L.L.L.L.L.L.L.L.L.L.L.L.L.L.L.L.L.L.L.L.L.L.L.",
"L.L.L.L.L.L.L.L.L.L.L.L.L.L.L.L.L.L.L.L.L.L.L.L.L.L.L.L.L.L.L.L.L.L.L.L.L.L.L.L.L.L.L.L.L.L.L.L.L.L.L.L.L.L.L.L.L.L.L.L.L.L.L.L.",
"L.L.L.L.L.L.L.L.L.L.L.L.L.L.L.L.L.L.L.L.L.L.L.L.L.L.L.L.L.L.L.L.L.L.L.L.L.L.L.L.L.L.L.L.L.L.L.L.L.L.L.L.L.L.L.L.L.L.L.L.L.L.L.L.",
"L.L.L.L.L.L.L.L.L.J.J.L.L.L.L.L.L.L.L.L.L.L.L.L.L.L.L.L.L.L.L.L.L.L.L.L.L.L.L.L.J.J.L.L.L.L.L.L.L.L.L.L.L.L.L.L.L.L.L.L.L.L.L.L.",
"L.L.L.L.L.L.L.L.L.J.J.L.L.L.L.L.L.L.L.L.L.L.L.L.L.L.L.L.L.L.L.L.L.L.L.L.L.L.L.L.J.J.L.L.L.L.L.L.L.L.L.L.L.L.L.L.L.L.L.L.L.L.L.L.",
"L.L.L.L.L.L.L.L.L.L.L.J.J.L.L.L.L.L.L.L.L.L.L.L.L.L.L.L.L.L.L.L.L.L.L.L.L.L.L.L.L.L.J.J.L.L.L.L.L.L.L.L.L.L.L.L.L.L.L.L.L.L.L.L.",
"L.L.L.L.L.L.L.L.L.L.L.J.J.L.L.L.L.L.L.L.L.L.L.L.L.L.L.L.L.L.L.L.L.L.L.L.L.L.L.L.L.L.J.J.L.L.L.L.L.L.L.L.L.L.L.L.L.L.L.L.L.L.L.L.",
"L.L.L.L.L.L.L.L.L.L.L.L.L.L.L.L.L.L.L.L.L.L.L.L.L.L.L.L.L.L.L.L.L.L.L.L.L.L.L.L.L.L.L.L.L.L.L.L.L.L.L.L.L.L.L.L.L.L.L.L.L.L.L.L.",
"L.L.L.L.L.L.L.L.L.L.L.L.L.L.L.L.L.L.L.L.L.L.L.L.L.L.L.L.L.L.L.L.L.L.L.L.L.L.L.L.L.L.L.L.L.L.L.L.L.L.L.L.L.L.L.L.L.L.L.L.L.L.L.L.",
"L.L.L.L.L.L.L.L.L.L.L.L.L.L.L.L.L.L.L.L.L.L.L.L.L.L.L.L.L.L.L.L.L.L.L.L.L.L.L.L.L.L.L.L.L.L.L.L.L.L.L.L.L.L.L.L.L.L.L.L.L.L.L.L.",
"L.L.L.L.L.L.L.L.L.L.L.L.L.L.L.L.L.L.L.L.L.L.L.L.L.L.L.L.L.L.L.L.L.L.L.L.L.L.L.L.L.L.L.L.L.L.L.L.L.L.L.L.L.L.L.L.L.L.L.L.L.L.L.L.",
"L.L.L.L.L.L.L.L.L.L.L.L.L.L.L.L.L.L.L.L.J.J.L.L.L.L.L.L.L.L.L.L.L.L.L.L.L.L.L.L.L.L.L.L.L.L.L.L.L.L.L.L.J.J.L.L.L.L.L.L.L.L.L.L.",
"L.L.L.L.L.L.L.L.L.L.L.L.L.L.L.L.L.L.L.L.J.J.L.L.L.L.L.L.L.L.L.L.L.L.L.L.L.L.L.L.L.L.L.L.L.L.L.L.L.L.L.L.J.J.L.L.L.L.L.L.L.L.L.L.",
"L.L.L.L.L.L.L.L.L.L.L.L.L.L.L.L.L.L.J.J.L.L.L.L.L.L.L.L.L.L.L.L.L.L.L.L.L.L.L.L.L.L.L.L.L.L.L.L.L.L.J.J.L.L.L.L.L.L.L.L.L.L.L.L.",
"L.L.L.L.L.L.L.L.L.L.L.L.L.L.L.L.L.L.J.J.L.L.L.L.L.L. .E p p p p p p p p p p p p p  .L.L.L.L.L.L.L.L.J.J.L.L.L.L.L.L.L.L.L.L.L.L.",
"L.L.L.L.L.L.L.L.L.L.L.L.L.L.L.L.L.L.L.L.L.L.L.L.L.L.y @ y a a M a W a a W W a y @ y L.L.L.L.L.L.L.L.L.L.L.L.L.L.L.L.L.L.L.L.L.L.",
"L.L.L.L.L.L.L.L.L.L.L.L.L.L.L.L.L.L.L.L.L.L.L.L. .y 0 )  X+X+X+X+X+X+X+X+X+X+X.X) 0 y  .L.L.L.L.L.L.L.L.L.L.L.L.L.L.L.L.L.L.L.L.",
"L.L.L.L.L.L.L.L.L.L.L.L.L.L.L.L.L.L.L.L.L.L.L.L.E % ) _.>X3X3X3X3X3X3X3X3X3X3X>X_.) @ p L.L.L.L.L.L.L.L.L.L.L.L.L.L.L.L.L.L.L.L.",
"L.L.L.L.L.L.L.L.L.L.L.L.L.L.L.L.L.L.L.L.L.L.L.L.` ) OX>X2X3X3X3X3X3X3X3X3X3X3X2X>X.Xy p L.L.L.L.L.L.L.L.L.L.L.L.L.L.L.L.L.L.L.L.",
"L.L.L.L.L.L.L.L.L.L.L.L.L.L.L.L.L.L.L.L.L.L.L.L.| X.-X3X3X3X1X<X<X<X<X<X<X1X2X3X3X*X] N ).L.L.L.L.L.L.L.L.L.L.L.L.L.L.L.L.L.L.L.",
"L.L.L.L.L.L.L.L.L.L.L.L.L.L.L.L.L.L.L.L.x.! ' ~ Q.}.:X3X3X1X#XV.V.V.V.V.V.#X1X3X3X*Xf.#.b  .L.L.L.L.L.L.L.L.L.L.L.L.L.L.L.L.L.L.",
"L.L.L.L.L.L.L.L.L.L.L.L.L.L.L.L.L.L.L.L.p.v E ^ '.|.-X<X<X=XB.n.n.n.n.n.n.B.=X,X;X#Xu.+.= q L.L.L.L.L.L.L.L.L.L.L.L.L.L.L.L.L.L.",
"L.L.L.L.L.L.L.L.L.L.L.L.L.L.L.L.L.L.x.p.4.f.(.^.'.}.[.V.V.N.m.n.n.n.n.n.n.m.B.B.v.u.w.+.= o q p p  .L.L.L.L.L.L.L.L.L.L.L.L.L.L.",
"L.L.L.L.L.L.L.L.L.L.L.L.L.L.L.L.L.L.Q :.e.v.).(.(.O.v.i.i.r.i.i.i.i.i.i.i.i.i.r.9.7.7.+.=     o q  .L.L.L.L.L.L.L.L.L.L.L.L.L.L.",
"L.L.L.L.L.L.L.L.L.L.L.L.L.L.L.L.L.L.Q :.e.b.4.2.2.4.w.9.0.0.0.0.0.0.0.0.0.0.0.0.8.7.6.+.=     q L.L.L.L.L.L.L.L.L.L.L.L.L.L.L.L.",
"L.L.L.L.L.L.L.L.L.L.L.L.L.L.L.L.L.L.Q :.y.i.w.6.6.7.6.7.8.8.6.7.7.7.7.7.7.8.6.8.7.5.%.g & X o p L.L.L.L.L.L.L.L.L.L.L.L.L.L.L.L.",
"L.L.L.L.L.L.L.L.L.L.L.L.L.L.L.L.L.L.Q :.e.i.0.6.7.7.7.7.7.7.7.7.7.7.7.7.7.7.7.7.6.%.h & . o e a p  .L.L.L.L.L.L.L.L.L.L.L.L.L.L.",
"L.L.L.L.L.L.L.L.L.L.L.L.L.L.L.L.L.L.x.p.4.e.w.0.7.7.7.7.*.*.7.7.7.7.7.7.7.6.*.&.%.g &     o e a p  .L.L.L.L.L.L.L.L.L.L.L.L.L.L.",
"L.L.L.L.L.L.L.L.L.L.L.L.L.L.L.L.L.L.L.L.p.-.e.r.9.7.7.&.@.@.;.7.7.7.7.7.7.*.@.h f O .       + p L.L.L.L.L.L.L.L.L.L.L.L.L.L.L.L.",
"L.L.L.L.L.L.L.L.L.L.L.L.L.L.L.L.L.L.K.K.].p.4.q.;.&.&.$.j j $.&.&.&.&.&.&.$.h - .             q L.L.L.L.L.L.L.L.L.L.L.L.L.L.L.L.",
"L.L.L.L.L.L.L.L.L.L.L.L.L.L.L.L.L.L.L.L.L.].p.:.k j j j h h j j k k k k k h & .               o q  .L.L.L.L.L.L.L.L.L.L.L.L.L.L.",
"L.L.L.L.L.L.L.L.L.L.L.L.L.L.L.L.L.L.L.L.L.L.p.c C C C v s s c :.C v s s C Z b : .             o q  .L.L.L.L.L.L.L.L.L.L.L.L.L.L.",
"L.L.L.L.L.L.L.L.L.L.L.L.L.L.L.L.L.L.L.L.L.L.{ a.f.k.k.a.1 d a.k.k.a.d z j.I.l.P :             q L.L.L.L.L.L.L.L.L.L.L.L.L.L.L.L.",
"L.L.L.L.L.L.L.L.L.L.L.L.L.L.L.L.L.L.L.L.L.L.' L h.I.R.z.n N z.R.T.z.B K Y.%XR.h.5     o q p p  .L.L.L.L.L.L.L.L.L.L.L.L.L.L.L.L.",
"L.L.L.L.L.L.L.L.L.L.L.L.L.L.L.L.L.L.L.L. .q : 1 ! h.E.Y.s.s.Y.$XR.I.l.P.$X%XE.h.5     q L.L.L.L.L.L.L.L.L.L.L.L.L.L.L.L.L.L.L.L.",
"L.L.L.L.L.L.L.L.L.L.L.L.L.L.L.L.L.L.L.L.p X X : B a.P.U.j.j.E.$XR.T.T.T.E.Y.I.d.4     p L.L.L.L.L.L.L.L.L.L.L.L.L.L.L.L.L.L.L.L.",
"L.L.L.L.L.L.L.L.L.L.L.L.L.L.L.L.L.L.L.L.p . @ q A a.d.h.c.I.T.R.T.T.T.I.h.g.d.L :     p L.L.L.L.L.L.L.L.L.L.L.L.L.L.L.L.L.L.L.L.",
"L.L.L.L.L.L.L.L.L.L.L.L.L.L.L.L.L.L.L.L.p O d n n n B A d.j.l.l.l.k.k.j.g.P { K 6 2 $ p L.L.L.L.L.L.L.L.L.L.L.L.L.L.L.L.L.L.L.L.",
"L.L.L.L.L.L.L.L.L.L.L.L.L.L.L.L.L.L.L.L.p & l #., # # : 5 r m G G B Z Z J.A.D.S.C.I H E p  .L.L.L.L.L.L.L.L.L.L.L.L.L.L.L.L.L.L.",
"L.L.L.L.L.L.L.L.L.L.L.L.L.L.L.L.L.L.L.L.p > l #.z 5 < : + o 8 w w 4 ; z U J.G.F.S.A.} G @ p L.L.L.L.L.L.L.L.L.L.L.L.L.L.L.L.L.L.",
"L.L.L.L.L.L.L.L.L.L.L.L.L.L.L.L.L.L. .p a t > f s.h.h.s.r % 0 w w 4 O 6 C.G.G.S.F D } J @ p L.L.L.L.L.L.L.L.L.L.L.L.L.L.L.L.L.L.",
"L.L.L.L.L.L.L.L.L.L.L.L.L.L.L.L.L.L.p @ a a + r l.R.T.z.G w w w w % o 3 I H.G.S.I H I J $ p L.L.L.L.L.L.L.L.L.L.L.L.L.L.L.L.L.L.",
"L.L.L.L.L.L.L.L.L.L.J.J.L.L.L.L.L.L.p @ a a $ r P.W.W.P.G q w e w 8 X 9 ( {.H.F.S.Z.A.J 2 p L.L.L.L.L.L.J.J.L.L.L.L.L.L.L.L.L.L.",
"L.L.L.L.L.L.L.L.L.L.J.J.L.L.L.L.L.L.y o e i d n h.P.l.{ r % % 8 R R 9 Y Q.( A.Z.F.S.I D $ E L.L.L.L.L.L.J.J.L.L.L.L.L.L.L.L.L.L.",
"L.L.L.L.L.L.L.L.L.L.L.L.J.J.O.` ` W @ X o 1 ,.<.n r 6 : + X . 9 / !.Q./ Y 7 3 S Z.Z.S $ % ` L.L.L.L.J.J.L.L.L.L.L.L.L.L.L.L.L.L.",
"L.L.L.L.L.L.L.L.L.L.L.L.J.J.W 8 % @ X     , 3.3.d     X 7 9 9 T ~.^.~.^ 7     2 F F 2 X @ W L.L.L.L.J.J.L.L.L.L.L.L.L.L.L.L.L.L.",
"L.L.L.L.L.L.L.L.L.L.L.L.O.W % X . X       ; 3.3.f     7 ^ Q.Q.~.}.~.T 7 X     X 2 2 X     % W ).L.L.L.L.L.L.L.L.L.L.L.L.L.L.L.L.",
"L.L.L.L.L.L.L.L.L.L.L.L.W : * > i r > = ; x ,.>.* . * b /.`.`.`.~.^ 7 X * , = = * = = = = * : W L.L.L.L.L.L.L.L.L.L.L.L.L.L.L.L.",
"L.L.L.L.L.L.L.L.L.L.O.W % * g 2.oXoX2.-.1.,.x * . * >.a...| | ~ Y 7 X * >.1.-.+.+.+.+.+.+.l * % W O.L.L.L.L.L.L.L.L.L.L.L.L.L.L.",
"L.L.L.L.L.L.L.L.L.L._ % @ > g f.*X,Xv.i.M.f.1 X o 1 ,.t.a.[ { ] #     * >.3.w.0.0.w.u.y.-.l > @ % _ L.L.L.L.L.L.L.L.L.L.L.L.L.L.",
"L.L.L.L.L.L.L.L.L.L.p @ y t > ] *X,XN.M.=XoXu o e i 5 x t.u.v.2.>     . * x q.i.i.M.#XoXZ > t y @ E L.L.L.L.L.L.L.L.L.L.L.L.L.L.",
"L.L.L.L.L.L.L.L.L.L.p @ a G 1 N  X&X#XT.&X XN < G a @ * >.t.1.>.*   o # * f ,.y.M.#X+X XN > G a @ p L.L.L.L.L.L.L.L.L.L.L.L.L.L.",
"L.L.L.L.L.L.L.L.L.L.p @ a ] >.#.N ..&X&X..N #.=.] a @ . * , , * O o e N =.l f L @X&Xo.N =.=.G a @ p L.L.L.L.L.L.L.L.L.L.L.L.L.L.",
"L.L.L.L.L.L.L.L.L.L. .p a V ,.=.< ) OXOX) < >.,.m a p p p p p p p p a V >.=.1 ) OXXXM < =.,.B a p  .L.L.L.L.L.L.L.L.L.L.L.L.L.L.",
"L.L.L.L.L.L.L.L.L.L.L.L.p : V ] M _ o.o._ M G B 0 p K.K.K.K.K.K.K.K.p 4 V G M _ o.o._ M G B 0 p L.L.L.L.L.L.L.L.L.L.L.L.L.L.L.L.",
"L.L.L.L.L.L.L.L.L.L.L.L. .p a W a a a a a a M a p  .K.K.K.K.K.K.K.K. .p a a a M a a a a M a p  .L.L.L.L.L.L.L.L.L.L.L.L.L.L.L.L.",
"L.L.L.L.L.L.L.L.L.L.L.L.L.L.p @ @ @ @ @ @ @ @ p K.K.K.K.K.K.K.K.K.K.K.K.p @ @ @ @ @ @ @ @ p L.L.L.L.L.L.L.L.L.L.L.L.L.L.L.L.L.L.",
"L.L.L.L.L.L.L.L.L.L.L.L.L.L.p                 p K.K.K.K.K.K.K.K.K.K.K.K.p                 p L.L.L.L.L.L.L.L.L.L.L.L.L.L.L.L.L.L."
};
