/* XPM */
static char *_33cbe4878024cd49ad047562fcf385aJNBtned9RUKwexeN[] = {
/* columns rows colors chars-per-pixel */
"64 64 7 1 ",
"  c #89AC36",
". c #8DAE37",
"X c #98B338",
"o c #9FB638",
"O c #A2B739",
"+ c #A9BA3A",
"@ c #ADBC3A",
/* pixels */
"@@@@@@o@@@@@@@@@@@@@@@@@@@@@@@@@@@@@@@@@@@@@@@@@@@@@@@@@@@@@@@@@",
"@@@@@@O@@@@@@@@@@@@@@@@@@@@@@@@@@@@@@@@@@@@@@@@@@@@@@@@@@@@@@@@@",
"@@@@@@+@@@@@@@@@@@@@@@@@@@@@@@@@@@@@@@@@@@@@@@@@@@@@@@@@@@@@@@@@",
"@@@@@@@@@@@@@@@@@@@@@@@@@@@@@@@@@@@@@@@@@@@@@@@@@@@@@@@@@@@@@@@@",
"@@@@@@@@@@@@@@@@@@@@@@@@@@@@@@@@@@@@@@@@@@@@@@@@@@@@@@@@@@@@@@@@",
"@@@@@@@@@@@@@@@@@@@@@@@@@@@@@@@@@@@@@@@@@@@@@@@@@@@@@@@@@@@@@@@@",
"@@@@@@@@@@@@@@@@@@@@@@@@@@@@@@@@@@@@@@@@@@@@@@@@@@@@@@@@@@@@@@@@",
"@@@@@@@+OO+@@@@@@@@@@@@@@@@@@@@@@@@@@@@+OO+@@@@@@@@@@@@@@@@@@@@@",
"@@@@@@@O..O@@@@@@@@@@@@@@@@@@@@@@@@@@@@O..O@@@@@@@@@@@@@@@@@@@@@",
"@@@@@@@O. XO+@@@@@@@@@@@@@@@@@@@@@@@@@@O. XO+@@@@@@@@@@@@@@@@@@@",
"@@@@@@@+OX .O@@@@@@@@@@@@@@@@@@@@@@@@@@+OX .O@@@@@@@@@@@@@@@@@@@",
"@@@@@@@@@O..O@@@@@@@@@@@@@@@@@@@@@@@@@@@@O..O@@@@@@@@@@@@@@@@@@@",
"@@@@@@@@@+OO+@@@@@@@@@@@@@@@@@@@@@@@@@@@@+OO+@@@@@@@@@@@@@@@@@@@",
"@@@@@@@@@@@@@@@@@@@@@@@@@@@@@@@@@@@@@@@@@@@@@@@@@@@@@@@@@@@@@@@@",
"@@@@@@@@@@@@@@@@@@@@@@@@@@@@@@@@@@@@@@@@@@@@@@@@@@@@@@@@@@@@@@@@",
"@@@@@@@@@@@@@@@@@@@+OO+@@@@@@@@@@@@@@@@@@@@@@@@@@@@+OO+@@@@@@@@@",
"@@@@@@@@@@@@@@@@@@@O..O@@@@@@@@@@@@@@@@@@@@@@@@@@@@O..O@@@@@@@@@",
"@@@@@@@@@@@@@@@@@+OX .O@@@@@@@@@@@@@@@@@@@@@@@@@@+OX .O@@@@@@@@@",
"@@@@@@@@@@@@@@@@@O. XO+@@@@@@@@@@@@@@@@@@@@@@@@@@O. XO+@@@@@@@@@",
"@@@@@@@@@@@@@@@@@O..O@@@@@@@@@@@@@@@@@@@@@@@@@@@@O..O@@@@@@@@@@@",
"@@@@@@@@@@@@@@@@@+OO+@@@@@@@@@@@@@@@@@@@@@@@@@@@@+OO+@@@@@@@@@@@",
"@@@@@@@@@@@@@@@@@@@@@@@@@@@@@@@@@@@@@@@@@@@@@@@@@@@@@@@@@@@@@@@@",
"@@@@@@@@@@@@@@@@@@@@@@@@@@@@@@@@@@@@@@@@@@@@@@@@@@@@@@@@@@@@@@@@",
"@@@@@@@@@@@@@@@@@@@@@@@@@@@@@@@@@@@@@@@@@@@@@@@@@@@@@@@@@@@@@@@@",
"@@@@@@@@@@@@@@@@@@@@@@@@@@@@@@@@@@@@@@@@@@@@@@@@@@@@@@@@@@@@@@@@",
"@@@@@@@@@@@@@@@@@@@@@@@@@@@@@@@@@@@@@@@@@@@@@@@@@@@@@@@@@@@@@@@@",
"@@@@@@@@@@@@@@@@@@@@@@@@@@@@@@@@@@@@@@@@@@@@@@@@@@@@@@@@@@@@@@@@",
"@@@@@@@@@@@@@@@@@@@@@@@@@@@@@@@@@@@@@@@@@@@@@@@@@@@@@@@@@@@@@@@@",
"@@@@@@@@@@@@@@@@@@@@@@@@@@@@@@@@@@@@@@@@@@@@@@@@@@@@@@@@@@@@@@@@",
"@@@@@@@@@@@@@@@@@@@@@@@@@@@@@@@@@@@@@@@@@@@@@@@@@@@@@@@@@@@@@@@@",
"@@@@@@@@@@@@@@@@@@@@@@@@@@@@@@@@@@@@@@@@@@@@@@@@@@@@@@@@@@@@@@@@",
"@@@@@@@@@@@@@@@@@@@@@@@@@@@@@@@@@@@@@@@@@@@@@@@@@@@@@@@@@@@@@@@@",
"@@@@@@@@@@@@@@@@@@@@@@@@@@@@@@@@@@@@@@@@@@@@@@@@@@@@@@@@@@@@@@@@",
"@@@@@@@@@@@@@@@@@@@@@@@@@@@@@@@@@@@@@@@@@@@@@@@@@@@@@@@@@@@@@@@@",
"@@@@@@@@@@@@@@@@@@@@@@@@@@@@@@@@@@@@@@@@@@@@@@@@@@@@@@@@@@@@@@@@",
"@@@@@@@@@@@@@@@@@@@@@@@@@@@@@@@@@@@@@@@@@@@@@@@@@@@@@@@@@@@@@@@@",
"@@@@@@@@@@@@@@@@@@@@@@@@@@@@@@@@@@@@@@@@@@@@@@@@@@@@@@@@@@@@@@@@",
"@@@@@@@@@@@@@@@@@@@@@@@@@@@@@@@@@@@@@@@@@@@@@@@@@@@@@@@@@@@@@@@@",
"@@@@@@@@@@@@@@@@@@@@@@@@@@@@@@@@@@@@@@@@@@@@@@@@@@@@@@@@@@@@@@@@",
"@@@@@@@@@@@@@@@@@@@@@+OO+@@@@@@@@@@@@@@+OO+@@@@@@@@@@@@@@@@@@@@@",
"@@@@@@@@@@@@@@@@@@@@@O..O@@@@@@@@@@@@@@O..O@@@@@@@@@@@@@@@@@@@@@",
"@@@@@@@@@@@@@@@@@@@+OX .O@@@@@@@@@@@@@@O. XO+@@@@@@@@@@@@@@@@@@@",
"@@@@@@@@@@@@@@@@@@@O. XO+@@@@@@@@@@@@@@+OX .O@@@@@@@@@@@@@@@@@@@",
"@@@@@@@@@@@@@@@@@@@O..O@@@@@@@@@@@@@@@@@@O..O@@@@@@@@@@@@@@@@@@@",
"@@@@@@@@@@@@@@@@@@@+OO+@@@@@@@@@@@@@@@@@@+OO+@@@@@@@@@@@@@@@@@@@",
"@@@@@@@@@@@@@@@@@@@@@@@@@@@@@@@@@@@@@@@@@@@@@@@@@@@@@@@@@@@@@@@@",
"@@@@@@@@@@@@@@@@@@@@@@@@@@@@@@@@@@@@@@@@@@@@@@@@@@@@@@@@@@@@@@@@",
"@@@@@@@@@+OO+@@@@@@@@@@@@@@@@@@@@@@@@@@@@@@@@@@@@@@+OO+@@@@@@@@@",
"@@@@@@@@@O..O@@@@@@@@@@@@@@@@@@@@@@@@@@@@@@@@@@@@@@O..O@@@@@@@@@",
"@@@@@@@@@O. XO+@@@@@@@@@@@@@@@@@@@@@@@@@@@@@@@@@@+OX .O@@@@@@@@@",
"@@@@@@@@@+OX .O@@@@@@@@@@@@@@@@@@@@@@@@@@@@@@@@@@O. XO+@@@@@@@@@",
"@@@@@@@@@@@O..O@@@@@@@@@@@@@@@@@@@@@@@@@@@@@@@@@@O..O@@@@@@@@@@@",
"@@@@@@@@@@@+OO+@@@@@@@@@@@@@@@@@@@@@@@@@@@@@@@@@@+OO+@@@@@@@@@@@",
"@@@@@@@@@@@@@@@@@@@@@@@@@@@@@@@@@@@@@@@@@@@@@@@@@@@@@@@@@@@@@@@@",
"@@@@@@@@@@@@@@@@@@@@@@@@@@@@@@@@@@@@@@@@@@@@@@@@@@@@@@@@@@@@@@@@",
"@@@@@@@@@@@@@@@@@@@@@@@@@@@@@@@@@@@@@@@@@@@@@@@@@@@@@@@@@@@@@@@@",
"@@@@@@@@@@@@@@@@@@@@@@@@@@@@@@@@@@@@@@@@@@@@@@@@@@@@@@@@@@@@@@@@",
"@@@@@@@@@@@@@@@@@@@@@@@@@@@@@@@@@@@@@@@@@@@@@@@@@@@@@@@@@@@@@@@@",
"@@@@@@@@@@@@@@@@@@@@@@@@@@@@@@@@@@@@@@@@@@@@@@@@@@@@@@@@@@@@@@@@",
"@@@@@@@@@@@@@@@@@@@@@@@@@@@@@@@@@@@@@@@@@@@@@@@@@@@@@@@@@@@@@@@@",
"@@@@@@@@@@@@@@@@@@@@@@@@@@@@@@@@@@@@@@@@@@@@@@@@@@@@@@@@@@@@@@@@",
"@@@@@@@@@@@@@@@@@@@@@@@@@@@@@@@@@@@@@@@@@@@@@@@@@@@@@@@@@@@@@@@@",
"@@@@@@@@@@@@@@@@@@@@@@@@@@@@@@@@@@@@@@@@@@@@@@@@@@@@@@@@@@@@@@@@",
"@@@@@@@@@@@@@@@@@@@@@@@@@@@@@@@@@@@@@@@@@@@@@@@@@@@@@@@@@@@@@@@@"
};
