/* XPM */
static char *_708534480554c219a7bfaac174cb62c9eRqbarWSR8enjYx[] = {
/* columns rows colors chars-per-pixel */
"64 64 13 1 ",
"  c None",
". c #101010",
"X c #505068",
"o c #74A334",
"O c #ADBC3A",
"+ c #703090",
"@ c #8858A8",
"# c #8888B0",
"$ c #B080D0",
"% c #B8B8D0",
"& c #E0B0F8",
"* c #E0E0F0",
"= c #F8F8F8",
/* pixels */
"OOOOOOOOOOOOOOOOOOOOOOOOOOOOOOOOOOOOOOOOOOOOOOOOOOOOOOOOOOOOOOOO",
"OOOOOOOOOOOOOOOOOOOOOOOOOOOOOOOOOOOOOOOOOO##XOOOOOOOOOOOOOOOOOOO",
"OOOOOOOOOOOOOOOOOOOOOOOOOOOOOOOOOOOOOOOOO#==*XOOOOOOOOOOOOOOOOOO",
"OOOOOOOOOOOOOOOOOOOOOOOOOOOOOOOOOOOOOOOOO#=**XOOOOOOOOOOOOOOOOOO",
"OOOOOOOOOOOOOOOOOOOOOOOOOOOO#XOOOOOOO####****XOOOOOOOOOOOOOOOOOO",
"OOOOOOOOOOOOOOOOOOOOOOOOOOO#==#XOO##%==****#*XOOOOOOOOOOOOOOOOOO",
"OOOOOOOOOOOOOOOOOOOOOOOOOO#=====.#=======***#XOOOOOOOOOOOOOOOOOO",
"OOOOOOOOOOOOOOOOOOOOOOOOOOX=***==%#======****XOOOOOOOOOOOOOOOOOO",
"OOOOOOOOOOOOOOOOOOOOOOOOOOOX*******#=====****=XOOOOOOOOOOOOOOOOO",
"OOOOOOOOooOOOOOOOOOOOOOOOOOOX*******%*==*****=%XOOooOOOOOOOOOOOO",
"OOOOOOOOooOOOOOO+++++OOOOOOOX****************==.OOooOOOOOOOOOOOO",
"OOOOOOOOOOooO+@@$$$$@@@OOOOOOX***************%=.ooOOOOOOOOOOOOOO",
"OOOOOOOOOOo+@$$$$$@@@@@@OOOOOO#*******%%*****%=XooOOOOOOOOOOOOOO",
"OOOOOOOOO+@$$$@@.+OO.+@@+OOOOOX******===%*****@*OOOOOOOOOOOOOOOO",
"OOOOOOO+@$$$$@+.OOOOOO.@@+OOOOO#***#X*===#****+XOOOOOOOOOOOOOOOO",
"OOOOOO@$$$$$+.OOOOOOOOO.@+OOOOOX****X#X==*****%XOOOOOOOOOOOOOOOO",
"OOOOO@&$$$$@.OOOOOOOOOO+@@+OOOOX****.&.X=#==***XOOOOOOOOOOOOOOOO",
"OOOO@&&&$$@+OOOOOOOOOOOO+@+OOOX*X***+.@=X#===***.OOOOOOOOOOOOOOO",
"OOOO+&&&$$@.OOOOOOOOOOOO+@+OOO#*X=*******====#**.OOOOOOOOOOOOOOO",
"OOO+$$&$$@+OOOOOOOOOOO##X@@.OX**X==******###=**XOOOOOOOOOOOOOOOO",
"OOO.$$$$$@.OOOOOOOOOO#**.@@.OX**%X..X%**%***..XOOOOOOOOOOOOOOOOO",
"OOO.@$$$@+OOOOOOOOOO#*==*.@.OX*%%.OOOX%%XX..OOOOOOOOOOOOOOOOOOOO",
"OOO.@@@@@.OOOOOOOOOO#*==*.@.OO#%%XXXX#%%XOOO##XOOOOOOOOOOOOOOOOO",
"OOOO.@@@.OOOOOOOOOOOOX**..@+OOXXX****##%%XXX===XOOOOOOOOOOOOOOOO",
"OOOOO...OOOOOOOOOOOOO..X%..OO..#*##X***#%%%*==*XOOOOOOOOOOOOOOOO",
"OOOOOOOOOOOOOOOOOOOO@$.%%%.OX**X#===%***%%**==*#OOOOOOOOOOOOOOOO",
"OOOOOOOOOOOOOOOOOOO##..%%%%X==*%.==%X*****#****.OOOOOOOOOOOOOOOO",
"OOOOOOOOOOOOOOOOOO#**.%%%%%X==*%.*%X#******%***.OOOOOOOOOOOOOOOO",
"OOOOOOOOOOOOOOOOOX*==*#%%%%%X*%.%#XX%X*****#%%.OOOOOOOOOOOOOOOOO",
"OOOOOOOOOOOOOOOOOX*==*#%%%%%%XX%.OOOX%X%%%####.OOOOOOOOOOOOOOOOO",
"OOOOOOOOOOOOOOOOOOX**.%%%.X%%X..OOOOOX*X..%%%%.OOOOOOOOOOOOOOOOO",
"OOOOOOOOOOOOOOOOO+$....X.%%X..OOOOOOOX%*****%%.XOOOOOOOOOOOOOOOO",
"OOOOOOOOOOOOOOOOO+$$$$@@X...OOOOOOOOOOX*******%.XOOOOOOOOOOOOOOO",
"OOOOOOOOOOOOOOOOO@$$$$@@+OOOOOOOOOOOOOX*******%.%XOOOOOOOOOOOOOO",
"OOOOOOOOOOOOOOOO@$$$$$@@+OOOOOOOOOOOOX%*****%@+%.%X.OOOOOOOOOOOO",
"OOOOOOOOOOOOOOOO+$$$$$$@@+OOOOOOOOOXXX#****%$&&X.X%%X..OOOOOOOOO",
"OOOOOOOOOOOOOOOO+$$$$$$@@+OOOOOOOX#==**#***@&&&&XX%%%%%X.OOOOOOO",
"OOOOOOOOOOOOOOOO+$$$$$$$@@+OOOOOX=====**#*%+&&&&&+X%%%%%%.OOOOOO",
"OOOOOOOOOOOOOOOO+$$$$$$$$@@++OOX=======*#%%+&&&&&+%X%%%X%%.OOOOO",
"OOOOOOOOOOOOOOOO+@$$$$$$$$$@@+X========**#+$$&&&$$+%X%XX%%%.OOOO",
"OOOOOOOOOOOOOOOO@@$$$$$$$$$$$$#========**X+$$$$$$$+%X%%*X%%.OOOO",
"OOOOOOOOOOOOOOOOO+@$$$$$$$$$$X#========**X@$$$$$$$+%%.%*X.*XOOOO",
"OOOOOOOOOOOOOOOOO.@@$$$$$$$$$X========***X$$$$$$$$+%%...%%.OOOOO",
"OOOOOOOOOOOOOOOOO.@@@$$$$$$$$X=======***#@$$$$$$$+%%%.OO..OOOOOO",
"OOOOOOOOOOOOOOOOOO+@@@@$$$$$$X*=====****X$$$$$$$$+%%%.OOOOOOOOOO",
"OOOOOOOOOOOOOOOOOO.@@@@@@@$$$X**==*****%+$$$$$$$+%%%XOOOOOOOOOOO",
"OOOOOOOOOOOOOOOOOOO.@@@@@@@@@X*********.@@$$$$$@+%%%.OOOOOOOOOOO",
"OOOOOOOOOOOOooOOOOOO.@@@@@@@@@#*******.@@@@@$$@+%%%.OOOOOOOOOOOO",
"OOOOOOOOOOOOooOOOOOOO.@@@@@@@@X******.@@@@@@@@+%%%.oOOOOOOOOOOOO",
"OOOOOOOOOOooOOOOOOOOOO.+@@@@@@@X***%.@@@@@@@@.%%%XOOooOOOOOOOOOO",
"OOOOOOOOOOooOOOOOOOOOOOO.+@@@@@X%%%.@@@@@@@..%%%XOOOooOOOOOOOOOO",
"OOOOOOOOOOOOOOOOOOOOOOOOOO..+@@X%%%.@@@@... .%%%.OOOOOOOOOOOOOOO",
"OOOOOOOOOOOOOOOOOOOOOOOOOOOOO.X%%%......OOO.%%%%%XOOOOOOOOOOOOOO",
"OOOOOOOOOOOOOOOOOOOOOOOOOOOOOOX%%%.OOOOOOO.%%%%%%XOOOOOOOOOOOOOO",
"OOOOOOOOOOOOOOOOOOOOOOOOOOOOOX***%.OOOOOOOX##%%%%%XOOOOOOOOOOOOO",
"OOOOOOOOOOOOOOOOOOOOOOOOOOOOO#****.XOOOOO.%%%#%%%%%XXOOOOOOOOOOO",
"OOOOOOOOOOOOOOOOOOOOOOOOOOOOX*****X%.OOOO.%%%#%%%****#..OOOOOOOO",
"OOOOOOOOOOOOOOOOOOOOOOOOOOOOX*****X%.OOOOO....%%*%##**==.OOOOOOO",
"OOOOOOOOOOOOOOOOOOOOOOOOOOOX#*****X%.OOOOOOOOO..**==X*==.OOOOOOO",
"OOOOOOOOOOOOOOOOOOOOOOOOOXX***##**%XOOOOOOOOOOOO.*==.%**.OOOOOOO",
"OOOOOOOOOOOOOOOOOOOOOOOOX==**X*==*%.OOOOOOOOOOOO.%%%....OOOOOOOO",
"OOOOOOOOOOOOOOOOOOOOOOOOX==**X*==*XOOOOOOOOOOOOOO...OOOOOOOOOOOO",
"OOOOOOOOOOOOOOOOOOOOOOOOX**%XX%%%%.OOOOOOOOOOOOOOOOOOOOOOOOOOOOO",
"OOOOOOOOOOOOOOOOOOOOOOOOO.... ....OOOOOOOOOOOOOOOOOOOOOOOOOOOOOO"
};
