/* XPM */
static char *result[] = {
/* columns rows colors chars-per-pixel */
"64 64 180 2 ",
"   c #020101",
".  c #0B0402",
"X  c #0F0D03",
"o  c #0B0A0A",
"O  c #140A06",
"+  c #141203",
"@  c #1E1A05",
"#  c #121212",
"$  c #1D1811",
"%  c #210700",
"&  c #280A00",
"*  c #2F1402",
"=  c #351603",
"-  c #2B2507",
";  c #2D2808",
":  c #363009",
">  c #3B350A",
",  c #312D11",
"<  c #373314",
"1  c gray17",
"2  c #302F2D",
"3  c #39382F",
"4  c gray19",
"5  c gray24",
"6  c #430F00",
"7  c #441100",
"8  c #451F04",
"9  c #5E1A01",
"0  c #4F1E10",
"q  c #781C00",
"w  c #463F0C",
"e  c #7B2D04",
"r  c #7B3A08",
"t  c #682816",
"y  c #572D21",
"u  c #6D3C2D",
"i  c #4B430D",
"p  c #54450D",
"a  c #544B0F",
"s  c #534B17",
"d  c #5B5210",
"f  c #66500F",
"g  c #625811",
"h  c #695D12",
"j  c #6D6217",
"k  c #716513",
"l  c #7E7116",
"z  c #4F482D",
"x  c #5E572B",
"c  c #654137",
"v  c #706729",
"b  c #756D39",
"n  c #7F7633",
"m  c #4B4B4B",
"M  c #55544C",
"N  c #525252",
"B  c #5A5857",
"V  c #6C684B",
"C  c #7A7349",
"Z  c #74715F",
"A  c #656565",
"S  c #71706A",
"D  c #717171",
"F  c #797979",
"G  c #852508",
"H  c #932200",
"J  c #A22801",
"K  c #B13308",
"L  c #CB2F00",
"P  c #CA3D0A",
"I  c #D63200",
"U  c #D73A02",
"Y  c #D83B03",
"T  c #AF4608",
"R  c #827416",
"E  c #867817",
"W  c #87791B",
"Q  c #8D7E18",
"!  c #BA7213",
"~  c #924630",
"^  c #A74B30",
"/  c #BD5030",
"(  c #827728",
")  c #927439",
"_  c #A57E33",
"`  c #D94405",
"'  c #C25E0D",
"]  c #DB5208",
"[  c #DB630D",
"{  c #DF6B0F",
"}  c #E07311",
"|  c #E17912",
" . c #E0623D",
".. c #855D51",
"X. c #947954",
"o. c #867570",
"O. c #B37F70",
"+. c #D56A4B",
"@. c #DA6F50",
"#. c #C07D52",
"$. c #E37859",
"%. c #938319",
"&. c #9D8D1C",
"*. c #A4931C",
"=. c #A9971D",
"-. c #B9981C",
";. c #B3A11F",
":. c #8F8332",
">. c #B09028",
",. c #8DAE37",
"<. c #B9A621",
"1. c #BCA820",
"2. c #ADBC3A",
"3. c #DE8C17",
"4. c #C29A1C",
"5. c #CA9C1C",
"6. c #D69B1B",
"7. c #E28013",
"8. c #E48E17",
"9. c #E5921A",
"0. c #E69D1B",
"q. c #DBA01C",
"w. c #E8A61D",
"e. c #E9AD1F",
"r. c #C79E24",
"t. c #E69926",
"y. c #C2AE21",
"u. c #C5B022",
"i. c #CBB422",
"p. c #CEB923",
"a. c #D2BC24",
"s. c #EAB521",
"d. c #EBB922",
"f. c #EDBF3F",
"g. c #DDC225",
"h. c #ECC324",
"j. c #E1CA27",
"k. c #EDCB26",
"l. c #E7CE28",
"z. c #EFD629",
"x. c #F0D730",
"c. c #F0D835",
"v. c #F0D93C",
"b. c #9D9243",
"n. c #8B855B",
"m. c #838068",
"M. c #888678",
"N. c #BB8879",
"B. c #E48140",
"V. c #D09172",
"C. c #E98F75",
"Z. c #EEBA63",
"A. c #F1DB46",
"S. c #F2DE51",
"D. c #F3E05F",
"F. c #F4E36D",
"G. c #858585",
"H. c #8E8D8C",
"J. c #95918F",
"K. c #9B9B9B",
"L. c #B8998F",
"P. c #B9A49D",
"I. c #A4A4A4",
"U. c #AFAFAF",
"Y. c #B2ABA9",
"T. c #B3B3B3",
"R. c #D59B89",
"E. c #E69C86",
"W. c #DBA18F",
"Q. c #E6A28E",
"!. c #ECA18A",
"~. c #E3B3A4",
"^. c #F1BAA9",
"/. c #F6E687",
"(. c #F7EC9A",
"). c #F4C8B2",
"_. c #F2EAB3",
"`. c #FCF7D5",
"'. c #F1EFE5",
"]. c #FEFCF6",
/* pixels */
"2.2.2.2.2.2.2.2.2.2.2.2.2.2.2.2.2.2.2.2.2.2.2.2.2.2.2.2.2.2.2.2.2.2.2.2.2.2.2.2.2.2.2.2.2.2.2.2.2.2.2.2.2.2.2.2.2.2.2.2.2.2.2.2.",
"2.2.2.2.2.2.2.2.2.2.2.2.2.2.2.2.2.2.2.2.2.2.2.2.2.2.2.2.2.2.2.2.2.2.2.2.2.2.2.2.2.2.2.2.2.2.2.2.2.2.2.2.2.2.2.2.2.2.2.2.2.2.2.2.",
"2.2.2.2.2.2.2.2.2.2.2.2.2.2.2.2.2.2.2.2.2.2.2.2.2.2.2.2.2.2.2.2.2.2.2.2.2.2.2.2.2.2.2.2.2.2.2.2.2.2.2.2.2.2.2.2.2.2.2.2.2.2.2.2.",
"2.2.2.2.2.2.2.2.2.2.2.2.2.2.2.2.2.2.2.2.2.2.2.2.2.2.2.2.2.2.2.2.2.2.2.2.2.2.2.2.2.2.2.2.2.2.2.2.2.2.2.2.2.2.2.2.2.2.2.2.2.2.2.2.",
"2.2.2.2.2.2.2.2.2.2.2.2.2.2.2.2.2.2.2.2.2.2.2.2.2.2.2.2.2.2.2.2.2.2.2.2.2.2.2.2.2.2.2.2.2.2.2.2.2.2.2.2.2.2.2.2.2.2.2.2.2.2.2.2.",
"2.2.2.2.2.2.2.2.2.2.2.2.2.2.2.2.2.2.2.2.2.2.2.2.2.2.2.2.2.2.2.2.2.2.2.2.2.2.2.2.2.2.2.2.2.2.2.2.2.2.2.2.2.2.2.2.2.2.2.2.2.2.2.2.",
"2.2.2.2.2.2.2.2.2.2.2.2.2.2.2.2.2.2.2.2.2.2.2.2.2.2.2.2.2.2.2.2.2.2.2.2.2.2.2.2.2.2.2.2.2.2.2.2.2.2.2.2.2.2.2.2.2.2.2.2.2.2.2.2.",
"2.2.2.2.2.2.2.2.2.2.2.2.2.2.2.2.2.2.2.2.2.2.2.2.2.2.2.2.2.2.2.2.2.2.2.2.2.2.2.2.2.2.2.2.2.2.2.2.2.2.2.2.2.2.2.2.2.2.2.2.2.2.2.2.",
"2.2.2.2.2.2.2.2.2.2.2.2.2.2.2.2.2.2.2.2.2.2.2.2.2.2.2.2.2.2.2.2.2.2.2.2.2.2.2.2.2.2.2.2.2.2.2.2.2.2.2.2.2.2.2.2.2.2.2.2.2.2.2.2.",
"2.2.2.2.2.2.2.2.,.,.2.2.2.2.2.2.2.2.2.2.2.2.2.2.2.2.2.2.2.2.2.2.2.2.2.2.2.2.2.,.,.2.2.2.2.2.2.2.2.2.2.2.2.2.2.2.2.2.2.2.2.2.2.2.",
"2.2.2.2.2.2.2.2.,.,.2.2.2.2.2.2.2.2.2.2.2.2.2.2.2.2.2.2.2.2.2.2.2.2.2.2.2.2.2.,.,.2.2.2.2.2.2.2.2.2.2.2.2.2.2.2.2.2.2.2.2.2.2.2.",
"2.2.2.2.2.2.2.2.2.2.,.,.2.2.2.2.2.2.2.2.2.2.2.2.2.2.2.2.2.2.2.2.2.2.2.2.2.2.2.2.2.,.,.2.2.2.2.2.2.2.2.2.2.2.2.2.2.2.2.2.2.2.2.2.",
"2.2.2.2.2.2.2.2.2.2.,.,.2.2.2.2.2.2.2.2.2.2.2.2.2.2.2.2.2.2.2.2.2.2.2.2.2.2.2.Q.J.W.,.2.2.2.2.2.2.2.2.2.2.2.2.2.2.2.2.2.2.2.2.2.",
"2.2.2.2.2.2.2.2.2.2.2.2.2.2.2.2.2.2.2.2.2.2.2.2.2.2.2.2.2.2.2.2.2.2.2.2.2.2.2.H   q 2.2.2.2.2.2.2.2.2.2.2.2.2.2.2.2.2.2.2.2.2.2.",
"2.2.2.2.2.2.2.2.2.2.2.2.2.2.2.2.2.2.2.2.2.2.2.2.2.2.2.2.2.2.2.2.2.2.2.2.R.^ 1     O 2.2.2.2.2.2.2.2.2.2.2.2.2.2.2.2.2.2.2.2.2.2.",
"2.2.2.2.2.2.2.2.2.2.2.2.E.+.2.2.2.2.2.2.2.2.2.2.2.2.2.2.2.2.2.2.2.2.@.t F z.k.    K 2.2.2.2.2.2.2.2.2.2.2.2.2.2.2.2.2.2.2.2.2.2.",
"2.2.2.2.2.2.2.2.2.2.2.C.q o 5 2.2.2.2.2.2.2.2.2.2.2.2.2.2.2.2.2.2.5 Y.z.z.z.z.    2.2.2.2.2.2.2.2.2.2.2.2.2.2.2.2.2.2.2.2.2.2.2.",
"2.2.2.2.2.2.2.2.2.2.2.o.O   # y 2.2.2.2.2.2.2.2.2.2.2.2.2.2.2.2 4 T.z.z.z.z.y.. J 2.2.2.2.2.2.2.2.2.2.2.2.2.2.2.2.2.2.2.2.2.2.2.",
"2.2.2.2.2.2.2.2.2.2.2.S     @ &.N 2.2.,.,.2.2.2.B.A N M N N A U.U.z.z.z.z.z.1.o ~.2.2.2.2.2.2.2.2.2.2.,.,.2.2.2.2.2.2.2.2.2.2.2.",
"2.2.2.2.2.2.2.2.2.2.2.O.6 - &.l.%.S 2.,.,.D D D Q.J.) E w - b.z.z.z.z.z.z.y.v J.2.2.2.2.2.2.2.2.F D 2.,.,.2.2.2.2.2.2.2.2.2.2.2.",
"2.2.2.2.2.2.2.2.2.2.2.^...i z.z.c.l V.L.F D D F z.z.S.z.;.%.A.z.z.z.z.z.x.4.~ 2.2.2.2.2.2.2.2.J.D D G.2.2.2.2.2.2.2.2.2.2.2.2.2.",
"2.2.2.2.2.2.2.2.2.2.2.2.2.i z.z.z.w.t...K.x.z.z.z.z.z.z.z.z.z.z.z.z.z.z.i.>.C.2.2.2.2.2.2.2.K.B z.z.N J.2.2.2.2.2.2.2.2.2.2.2.2.",
"2.2.2.2.2.2.2.2.2.2.2.2.2.x i.z.d.[ ).z.z.z.z.z.c.z.z.z.z.z.z.z.z.z.z.g.( D 2.2.2.2.2.2.2.P.B z.z.z.V M.2.2.2.2.2.2.2.2.2.2.2.2.",
"2.2.2.2.2.2.2.2.2.2.2.2.2.2.- h.` d.z.z.z.z.z.z.z.z.z.l.j.l.z.z.z.x.k.g D 2.2.2.2.2.2.2.Q.@.z.z.z.z.x.h D 2.2.2.2.2.2.2.2.2.2.2.",
"2.2.2.2.2.2.2.2.2.2.2.2.2.2.% ` h.z.c.c.c.c.z.z.z.z.z.k X a z.z.z.z.{ 9 D 2.2.2.2.2.2.2.J.N z.z.z.z.z.h D 2.2.2.2.2.2.2.2.2.2.2.",
"2.2.2.2.2.2.2.2.2.2.2.2.2.2.2.& - T e.z.z.z.z.z.z.z.h M.D X a z.z.z.h.f D 2.2.2.2.2.2.!.V.z.z.z.z.z.z.a.( D 2.2.2.2.2.2.2.2.2.2.",
"2.2.2.2.2.2.2.2.2.2.2.2.2.2.2.o I.y -.z.z.z.z.z.z.z.i 2 1   ; z.z.z.z.u.( G.2.2.2.2.G.>.f.z.z.z.z.z.v.z.E N 2.2.2.2.2.2.2.2.2.2.",
"2.2.2.2.2.2.2.2.2.2.2.2.2.2.2.o S # *.*.&.z.z.z.z.z.=.>   - &.z.z.z.z.z.W N 2.2.2.Q._ y.z.z.z.z.z.v.z.*.C 2.2.2.2.2.2.2.2.2.2.2.",
"2.2.2.2.2.2.2.2.2.2.2.2.2.2.V.g   a u.*.*.z.z.z.z.z.z.*.h %.h.9.9.h.z.z.<.) ^.2.2.~ 5.z.z.z.z.z.z.z.=.C 2.2.2.2.2.2.2.2.2.2.2.2.",
"2.2.2.2.2.2.2.2.2.2.2.2.2.2.T l.a a.z.u.*.1.z.z.=.j.z.z.z.h.8.I I 8.k.z.z.5.^ 2.2.2 *.z.z.z.z.z.z.;.V 2.2.2.2.2.2.2.2.2.2.2.2.2.",
"2.2.2.2.2.2.2.2.2.2.2.2.2.2.- d.z.z.p.a + d y.<.: i.z.z.z.w.I I I I 0.z.z.;.z 2.2.B :.g.z.z.z.z.y.z 2.2.2.2.2.2.2.2.2.2.2.2.2.2.",
"2.2.2.2.2.2.2.2.2.2.2.2.2.2.& U h.z.a O k =.X @ j.z.z.z.z.w.U I I U w.z.z.z.s.P 2.2.B E l.z.k.a.$ 2.2.2.2.2.2.2.2.2.2.2.2.2.2.2.",
"2.2.2.2.2.2.2.2.2.2.2.2.2.2.& I Y d.l.g.l.z.j.j.z.z.z.z.z.z.e.I I e.z.z.z.z.y.$ 2.2.2.S j z.u.$ 2.2.2.2.2.2.2.2.2.2.2.2.2.2.2.2.",
"2.2.2.2.2.2.2.2.2.2.2.2.2.2.2.* L d.x.z.z.z.z.z.z.x.z.z.z.z.k.s.d.k.z.z.z.z.l.<.3 2.2.D h z.z.;.3 2.2.2.2.2.2.2.2.2.2.2.2.2.2.2.",
"2.2.2.2.2.2.2.2.2.2.2.2.2.2.2.X 6.k.z.z.z.z.z.z.z.z.z.z.z.z.p.p [ h.z.z.z.z.z.j.X 2.2.2.m.l z.g.+ 2.2.2.2.2.2.2.2.2.2.2.2.2.2.2.",
"2.2.2.2.2.2.2.2.2.2.2.2.2.2.2.H.j a.z.z.z.z.z.z.z.z.z.z.e.! k W 3.h.z.z.z.z.z.l.%.Z 2.2.C *.z.l.%.Z 2.2.2.2.2.2.2.2.2.2.2.2.2.2.",
"2.2.2.2.2.2.2.2.2.2.2.2.2.2.2.2.# y.=.y.x.z.z.z.z.z.z.;._ #.R z.z.z.z.z.z.z.z.k.9.* A C *.z.z.x.z.; 2.2.2.2.2.2.2.2.2.2.2.2.2.2.",
"2.2.2.2.2.2.2.2.2.2.2.2.2.2.2.2.s a.l l *.1.z.z.z.z.y.b J.`.D.x.z.z.x.z.z.z.k.0.Y % : =.z.x.g.*.*.M 2.2.2.2.2.2.2.2.2.2.2.2.2.2.",
"2.2.2.2.2.2.2.2.2.2.2.2.2.2.2.K k.z.z.R , x i.z.z.z.h M.'.]._.z.u.y.j.z.z.k.0.I I % *.z.g.1.=.4 2 2.2.2.2.2.2.2.2.2.2.2.2.2.2.2.",
"2.2.2.2.2.2.2.2.2.2.2.2.2.2.2.X g.z.z.x./.U.- z.z.z.z.k S _.l.g.@ X =.z.z.w.Y Y ` = &.l.E o 5 2.2.2.2.2.2.2.2.2.2.2.2.2.2.2.2.2.",
"2.2.2.2.2.2.2.2.2.2.2.2.2.2.2.X j.z.z.(.].U.; z.z.z.z.z.W o = ` j.j.l.z.z.z.k.k.k.l.p Q l m 2.2.2.2.2.2.2.2.2.2.2.2.2.2.2.2.2.2.",
"2.2.2.2.2.2.2.2.2.2.2.2.2.2.2.2.< i.z.A.b.x p.z.z.z.z.z.g.y.i.d.z.z.z.z.z.z.z.z.z.z.i e ` G B 2.2.2.2.2.2.2.2.2.2.2.2.2.2.2.2.2.",
"2.2.2.2.2.2.2.2.2.2.2.2.2.2.2.2.T.x i i k ;.z.z.z.z.z.z.z.z.z.z.z.z.z.z.z.z.x.k.{ [ 8 q I H 4 2.2.2.2.2.2.2.2.2.2.2.2.2.2.2.2.2.",
"2.2.2.2.2.2.2.2.2.2.2.2.2.2.2.2.F ( E E ;.z.z.z.z.z.z.z.z.z.z.z.z.z.z.z.z.d.| } U I 7 q J u 2.2.2.2.2.2.2.2.2.2.2.2.2.2.2.2.2.2.",
"2.2.2.2.2.2.2.2.2.2.2.2.2.2.2.2.# y.z.z.z.z.z.z.z.z.z.z.z.z.k.t./.c.z.z.z.d.| } U I 6 6 u 2.2.2.2.2.2.2.2.2.2.2.2.2.2.2.2.2.2.2.",
"2.2.2.2.2.2.2.2.2.2.2.2.2.2.2.2.0 p.z.z.z.z.z.z.z.z.z.z.z.h.t.$.].S.z.z.z.z.z.k.{ J c N ,.2.2.2.2.2.2.2.2.2.2.2.2.2.2.2.2.2.2.2.",
"2.2.2.2.2.2.2.2.2.2.2.2.2.2.2.2. .r.g.z.k.h.z.z.z.z.z.z.z.q./ ].`.A.z.z.z.z.z.z.z.; 2.,.,.2.2.2.2.2.2.2.2.2.2.2.2.2.2.2.2.2.2.2.",
"2.2.2.2.2.2.2.2.2.2.2.2.2.2.2.2.2.5 *.k.8.{ k.z.z.z.z.z.z.*.3 '.c.z.z.z.z.z.z.z.j.< 2.2.2.2.2.2.2.2.2.2.2.2.2.2.2.2.2.2.2.2.2.2.",
"2.2.2.2.2.2.2.2.2.2.2.2.2.2.2.2.2.2.M Q k.0.U ` k.z.z.z.z.*.; c.z.z.z.z.z.z.z.j.@ 2.2.2.2.2.2.2.2.2.2.2.2.2.2.2.2.2.2.2.2.2.2.2.",
"2.2.2.2.2.2.2.2.2.2.,.,.2.2.2.2.2.2.2.Z r } s.s.] ] ] 0.z.l.=.: l.z.z.z.z.z.z.g.+ 2.2.2.2.2.2.2.2.2.2.2.2.2.2.2.2.2.2.2.2.2.2.2.",
"2.2.2.2.2.2.2.2.2.2.,.,.2.2.2.2.2.2.2.n 4.s.p.i 7 6 N.X.i i >   w ' s.z.z.s.! s 2.2.2.2.2.2.2.2.2.2.2.2.,.,.2.2.2.2.2.2.2.2.2.2.",
"2.2.2.2.2.2.2.2.2.2.2.2.,.,.2.2.2.2.2.C h h v 2.2.2.2.2.2.2.2.2.o ! 7.Z.F.4.t 2.2.2.2.2.2.2.2.2.2.2.2.2.,.,.2.2.2.2.2.2.2.2.2.2.",
"2.2.2.2.2.2.2.2.2.2.2.2.,.,.2.2.2.2.2.2.2.2.2.2.2.2.2.2.2.2.2.2.2.2.r ..n.n 2.2.2.2.2.2.2.2.2.2.2.2.,.,.2.2.2.2.2.2.2.2.2.2.2.2.",
"2.2.2.2.2.2.2.2.2.2.2.2.2.2.2.2.2.2.2.2.2.2.2.2.2.2.2.2.2.2.2.2.2.2.2.2.2.2.2.2.2.2.2.2.2.2.2.2.2.2.,.,.2.2.2.2.2.2.2.2.2.2.2.2.",
"2.2.2.2.2.2.2.2.2.2.2.2.2.2.2.2.2.2.2.2.2.2.2.2.2.2.2.2.2.2.2.2.2.2.2.2.2.2.2.2.2.2.2.2.2.2.2.2.2.2.2.2.2.2.2.2.2.2.2.2.2.2.2.2.",
"2.2.2.2.2.2.2.2.2.2.2.2.2.2.2.2.2.2.2.2.2.2.2.2.2.2.2.2.2.2.2.2.2.2.2.2.2.2.2.2.2.2.2.2.2.2.2.2.2.2.2.2.2.2.2.2.2.2.2.2.2.2.2.2.",
"2.2.2.2.2.2.2.2.2.2.2.2.2.2.2.2.2.2.2.2.2.2.2.2.2.2.2.2.2.2.2.2.2.2.2.2.2.2.2.2.2.2.2.2.2.2.2.2.2.2.2.2.2.2.2.2.2.2.2.2.2.2.2.2.",
"2.2.2.2.2.2.2.2.2.2.2.2.2.2.2.2.2.2.2.2.2.2.2.2.2.2.2.2.2.2.2.2.2.2.2.2.2.2.2.2.2.2.2.2.2.2.2.2.2.2.2.2.2.2.2.2.2.2.2.2.2.2.2.2.",
"2.2.2.2.2.2.2.2.2.2.2.2.2.2.2.2.2.2.2.2.2.2.2.2.2.2.2.2.2.2.2.2.2.2.2.2.2.2.2.2.2.2.2.2.2.2.2.2.2.2.2.2.2.2.2.2.2.2.2.2.2.2.2.2.",
"2.2.2.2.2.2.2.2.2.2.2.2.2.2.2.2.2.2.2.2.2.2.2.2.2.2.2.2.2.2.2.2.2.2.2.2.2.2.2.2.2.2.2.2.2.2.2.2.2.2.2.2.2.2.2.2.2.2.2.2.2.2.2.2.",
"2.2.2.2.2.2.2.2.2.2.2.2.2.2.2.2.2.2.2.2.2.2.2.2.2.2.2.2.2.2.2.2.2.2.2.2.2.2.2.2.2.2.2.2.2.2.2.2.2.2.2.2.2.2.2.2.2.2.2.2.2.2.2.2.",
"2.2.2.2.2.2.2.2.2.2.2.2.2.2.2.2.2.2.2.2.2.2.2.2.2.2.2.2.2.2.2.2.2.2.2.2.2.2.2.2.2.2.2.2.2.2.2.2.2.2.2.2.2.2.2.2.2.2.2.2.2.2.2.2.",
"2.2.2.2.2.2.2.2.2.2.2.2.2.2.2.2.2.2.2.2.2.2.2.2.2.2.2.2.2.2.2.2.2.2.2.2.2.2.2.2.2.2.2.2.2.2.2.2.2.2.2.2.2.2.2.2.2.2.2.2.2.2.2.2.",
"2.2.2.2.2.2.2.2.2.2.2.2.2.2.2.2.2.2.2.2.2.2.2.2.2.2.2.2.2.2.2.2.2.2.2.2.2.2.2.2.2.2.2.2.2.2.2.2.2.2.2.2.2.2.2.2.2.2.2.2.2.2.2.2."
};
