/* XPM */
static char *_8e0ea1a3a6045baebb042fe3b6b8d1cartR26emmLu5Zr2H[] = {
/* columns rows colors chars-per-pixel */
"64 64 160 2 ",
"   c #141B1B",
".  c #171C1B",
"X  c #161C1C",
"o  c #171D1C",
"O  c #1E1F1C",
"+  c #1E1F1E",
"@  c #1E211D",
"#  c #22211F",
"$  c #24211D",
"%  c #25241F",
"&  c #28231F",
"*  c #2A241F",
"=  c #2E251F",
"-  c #31271F",
";  c #1F2626",
":  c #242220",
">  c #252220",
",  c #2C2821",
"<  c #2F2A21",
"1  c #262D2D",
"2  c #332C22",
"3  c #322824",
"4  c #3C2B23",
"5  c #3F2D27",
"6  c #3E3026",
"7  c #2E3434",
"8  c #313737",
"9  c #3C3A38",
"0  c #452E22",
"q  c #433124",
"w  c #473727",
"e  c #453029",
"r  c #483129",
"t  c #49332A",
"y  c #573627",
"u  c #583625",
"i  c #5E3927",
"p  c #503428",
"a  c #51392B",
"s  c #59382B",
"d  c #5B3A2F",
"f  c #5A3C2E",
"g  c #513F39",
"h  c #623A27",
"j  c #653B27",
"k  c #693F29",
"l  c #6C3E2A",
"z  c #653E32",
"x  c #5C422C",
"c  c #48403B",
"v  c #62442E",
"b  c #66472E",
"n  c #6A492F",
"m  c #6C482E",
"M  c #724029",
"N  c #784A2E",
"B  c #6B4032",
"V  c #6C4333",
"C  c #66443A",
"Z  c #754433",
"A  c #784431",
"S  c #784637",
"D  c #704C31",
"F  c #764836",
"G  c #7A4D36",
"H  c #7B493B",
"J  c #4B5050",
"K  c #68514A",
"L  c #765242",
"P  c #6A5E59",
"I  c #6B6A69",
"U  c #6C7070",
"Y  c #7C7773",
"T  c #86482C",
"R  c #844C2E",
"E  c #904D2E",
"W  c #904C2F",
"Q  c #934D2E",
"!  c #964E2E",
"~  c #844830",
"^  c #864C3B",
"/  c #875534",
"(  c #855437",
")  c #8C5C37",
"_  c #885638",
"`  c #8F533D",
"'  c #955035",
"]  c #9C5130",
"[  c #92503B",
"{  c #93553E",
"}  c #9F5539",
"|  c #965F39",
" . c #995D3D",
".. c #A05230",
"X. c #A85634",
"o. c #A0563F",
"O. c #A9583B",
"+. c #B35A33",
"@. c #B45B37",
"#. c #B75C34",
"$. c #B05A38",
"%. c #B35D3E",
"&. c #96603A",
"*. c #9D653B",
"=. c #A3673D",
"-. c #C76136",
";. c #CA6336",
":. c #CD6437",
">. c #C1613B",
",. c #C7633C",
"<. c #D06538",
"1. c #D46738",
"2. c #D46739",
"3. c #DA6939",
"4. c #DA6A3B",
"5. c #E16C3A",
"6. c #E46D3A",
"7. c #E46F3D",
"8. c #965340",
"9. c #9A5641",
"0. c #9D5841",
"q. c #A05A42",
"w. c #A35C42",
"e. c #A36040",
"r. c #AD6643",
"t. c #AB6244",
"y. c #AF6D41",
"u. c #A36448",
"i. c #B36745",
"p. c #B76A46",
"a. c #B66E44",
"s. c #B96B46",
"d. c #BC7543",
"f. c #BF7743",
"g. c #BB7244",
"h. c #CA7B47",
"j. c #C77548",
"k. c #CE7A49",
"l. c #D1764F",
"z. c #E57443",
"x. c #E67849",
"c. c #E77D50",
"v. c #E77F53",
"b. c #ADBC3A",
"n. c #9D8478",
"m. c #BD917D",
"M. c #D48248",
"N. c #D68349",
"B. c #DA824B",
"V. c #DA854A",
"C. c #DE874B",
"Z. c #E2884D",
"A. c #E4894D",
"S. c #EF914F",
"D. c #EA8F68",
"F. c #7E8282",
"G. c #A3A6A6",
"H. c #DE9D81",
"J. c #EEA484",
"K. c #F0AF93",
/* pixels */
"b.b.b.b.b.b.b.b.b.b.b.b.b.b.b.b.b.b.b.b.b.b.b.b.b.b.b.b.b.b.b.b.b.b.b.b.b.b.b.b.b.b.b.b.b.b.b.b.b.b.b.b.b.b.b.b.b.b.b.b.b.b.b.b.",
"b.b.b.b.b.b.b.b.b.b.b.b.b.b.b.b.b.b.b.b.b.b.b.b.b.b.b.b.b.b.b.b.b.b.b.b.b.b.b.b.b.b.b.b.b.b.b.b.b.b.b.b.b.b.b.b.b.b.b.b.b.b.b.b.",
"b.b.b.b.b.b.b.b.b.b.b.b.b.b.b.b.b.b.b.b.b.b.b.b.b.b.b.b.b.b.b.b.b.b.b.b.b.b.b.b.b.b.b.b.b.b.b.b.b.b.b.b.b.b.b.b.b.b.b.b.b.b.b.b.",
"b.b.b.b.b.b.b.b.b.b.b.b.b.b.b.b.b.b.b.b.b.b.b.b.b.b.b.b.b.b.b.b.b.b.b.b.b.b.b.b.b.b.b.b.b.b.b.b.b.b.b.b.b.b.b.b.b.b.b.b.b.b.b.b.",
"b.b.b.b.b.b.b.b.b.b.J.J.J.J.J.J.J.J.J.J.J.J.J.J.J.J.J.J.J.J.J.J.J.J.J.J.J.J.J.J.J.J.J.J.J.J.J.J.J.J.J.J.J.J.b.b.b.b.b.b.b.b.b.b.",
"b.b.b.b.b.b.b.b.b.b.v.v.v.v.v.v.v.v.v.v.v.v.v.v.v.v.v.v.v.v.v.v.v.v.v.v.v.v.v.v.v.v.v.v.v.v.v.v.v.v.v.v.v.v.b.b.b.b.b.b.b.b.b.b.",
"b.b.b.b.b.b.b.b.b.b.6.6.6.6.6.6.6.6.6.6.6.6.6.6.6.6.6.6.6.6.6.6.6.6.6.6.6.6.6.6.6.6.6.6.6.6.6.6.6.6.6.6.6.6.b.b.b.b.b.b.b.b.b.b.",
"b.b.b.b.b.b.b.b.b.b.6.6.6.6.6.6.6.6.6.6.6.6.6.6.6.6.6.6.6.6.6.6.6.6.6.6.6.6.6.6.6.6.6.6.6.6.6.6.6.6.6.6.6.6.b.b.b.b.b.b.b.b.b.b.",
"b.b.b.b.b.b.b.b.b.b.6.6.6.6.6.6.6.6.6.6.6.6.6.6.6.6.6.6.6.6.6.6.6.6.6.6.6.6.6.6.6.6.6.6.6.6.6.6.6.6.6.6.6.6.b.b.b.b.b.b.b.b.b.b.",
"b.b.b.b.K.D.x.x.z.7.6.6.6.6.6.6.6.5.6.6.6.6.6.6.6.6.6.6.6.6.6.6.6.6.6.6.6.6.6.6.6.6.6.6.6.6.6.6.6.6.6.6.6.6.b.b.b.b.b.b.b.b.b.b.",
"b.b.b.b.J.Z.5.4.1.:.;.;.;.;.;.;.;.;.;.;.;.;.;.;.;.;.;.;.;.;.;.;.;.;.;.;.;.;.;.;.;.;.;.;.;.;.;.;.;.;.;.;.;.;.:.1.4.5.v.b.b.b.b.b.",
"b.b.b.b.J.v.4.-.+...! ! ! ! ! ! ! ! ! ! ! ! ! ! ! ! ! ! ! ! ! ! ! ! ! ! ! ! ! ! ! ! ! ! ! ! ! ! ! ! ! ! ! ! ..#.;.4.v.b.b.b.b.b.",
"b.b.b.b.J.v.1.#.Q M h h h h h h h h h h h h h h h h h h h h h h h h h h h h h h h h h h h h h h j h h h h h l ! +.1.v.b.b.b.b.b.",
"b.b.b.b.J.v.:.] M 0 = = = = = = = = = = = = = = = = = = = = = = = = = = = = = = = = = = = = = = = = = = = - 0 l ] :.v.b.b.b.b.b.",
"b.b.b.b.H.k.#.Q k q < < < < < < < < < % @ .                                                                 & u T +.l.b.b.b.b.b.",
"b.b.b.b.m.u.Q R N m b b b b b b b b x w 2 @                                                                 % 0 j T u.b.b.b.b.b.",
"b.b.b.b.n.L j F / &.*.*.*.*.*.*.*.*.) n w > X                                                               O - 0 u S b.b.b.b.b.",
"b.b.b.b.Y g e V | f.M.M.M.M.M.M.M.M.f.) x >                                                                 . O $ = g b.b.b.b.b.",
"b.b.b.b.U 8 2 b *.M.S.S.S.S.S.S.S.S.M.*.b <                                                                         8 b.b.b.b.b.",
"b.b.b.b.U 8 , b *.M.S.S.S.S.S.S.S.S.M.*.b <                                                                         8 b.b.b.b.b.",
"b.b.b.b.U 8 2 b *.M.S.S.S.S.S.S.S.S.M.*.b <                                                                         8 b.b.b.b.b.",
"b.b.b.b.U 8 < b *.M.S.S.S.S.S.S.S.S.M.*.b <                                                                         8 b.b.b.b.b.",
"b.b.b.b.U 8 < b *.M.S.S.S.S.S.S.S.S.M.=.D 6 % % % = = = = = = = = = & % @                                           8 b.b.b.b.b.",
"b.b.b.b.U 7 < b *.M.S.S.S.S.S.S.S.S.V.y./ f t p y i h h h h h h h h y 0 < O                                         8 b.b.b.b.b.",
"b.b.b.b.U 8 < b *.M.S.S.S.S.S.S.S.S.C.g. .S l Z T W ! ! ! ! ! ! ! ! T j 0 $ . .                                     8 b.b.b.b.b.",
"b.b.b.b.U 8 < b *.M.S.S.S.S.S.S.S.S.Z.h.r.{ 8.} O.-.;.;.;.:.;.;.;.;.+.T u &                                         8 b.b.b.b.b.",
"b.b.b.b.U 8 < b *.M.S.S.S.S.S.S.S.S.Z.k.p.q.o.%.,.4.5.5.6.6.6.6.5.6.;.! h =                                         8 b.b.b.b.b.",
"b.b.b.b.U 8 < b *.M.S.S.S.S.S.S.S.S.A.k.p.q.o.%.,.4.6.6.6.6.6.6.6.6.;.! h =                                         8 b.b.b.b.b.",
"b.b.b.b.U 8 < b *.M.S.S.S.S.S.S.S.S.A.k.p.q.o.%.,.4.6.6.6.6.6.6.6.6.;.! h =                                         8 b.b.b.b.b.",
"b.b.b.b.U 8 < b *.M.S.S.S.S.S.S.S.S.A.k.s.q.o.%.,.4.6.6.6.6.6.6.6.6.;.! h =                                         8 b.b.b.b.b.",
"b.b.b.b.U 8 < b *.M.S.S.S.S.S.S.S.S.A.k.p.q.q.%.,.4.6.6.6.6.6.6.6.6.;.! h =                                         8 b.b.b.b.b.",
"b.b.b.b.U 8 < b *.M.S.S.S.S.S.S.S.S.A.k.p.q.q.%.,.4.6.6.6.6.6.6.6.6.;.! h =                                         8 b.b.b.b.b.",
"b.b.b.b.U 8 < b *.M.S.S.S.S.S.S.S.S.Z.l.>.q.q.@.,.4.6.6.6.6.6.6.6.6.;.! h = .                                       8 b.b.b.b.b.",
"b.b.b.b.U 8 < b *.M.S.S.S.S.S.S.S.S.Z.l.>.0.q.w.,.4.6.6.6.6.6.6.6.6.;.! h =                                         8 b.b.b.b.b.",
"b.b.b.b.U 8 < b *.M.S.S.S.S.S.S.S.S.A.l.p.q.q.>.,.4.6.6.6.6.6.6.6.6.;.] k 4 $ % > > > > > + > + + X                 7 b.b.b.b.b.",
"b.b.b.b.U 8 < b *.M.S.S.S.S.S.S.S.S.c.l.p.q.q.w.,.4.6.6.6.6.6.6.6.6.:.X.T s e e e e e e e e e = >                   7 b.b.b.b.b.",
"b.b.b.b.U 8 < b *.M.S.S.S.S.S.S.S.S.Z.l.p.q.q.,.,.4.6.6.6.6.6.6.6.6.2.@.' Z z z z z z z z z d r 3 +               X 8 b.b.b.b.b.",
"b.b.b.b.U 8 < b *.M.S.S.S.S.S.S.S.S.A.l.p.q.q.w.,.4.6.6.6.6.6.6.6.6.3.>.O.[ ^ ^ ^ H ^ ^ 8.8.l d e >               X 8 b.b.b.b.b.",
"b.b.b.b.U 8 2 b *.M.S.S.S.S.S.S.S.S.A.k.i.q.q.t.,.4.6.6.6.6.6.6.6.6.3.,.t.9.8.8.8.8.8.8.8.8.^ z e >                 8 b.b.b.b.b.",
"b.b.b.b.U 7 3 b *.M.S.S.S.S.S.S.S.S.A.k.,.q.X.w.,.4.6.6.6.6.6.6.6.6.3.<.t.} 8.8.8.8.8.8.8.8.^ z e +                 8 b.b.b.b.b.",
"b.b.b.b.U 8 < b *.M.S.S.S.S.S.S.S.S.A.k.s.q.q.%.,.4.6.6.6.6.6.6.6.6.3.,.w.$.[ 8.8.8.8.8.8.8.^ z e >                 8 b.b.b.b.b.",
"b.b.b.b.U 8 < b *.M.S.S.S.S.S.S.S.S.A.k.s.o.o.%.,.4.6.6.6.6.6.6.6.6.3.,.>.q.8.8.8.8.8.8.8.8.^ z e >                 8 b.b.b.b.b.",
"b.b.b.b.U 8 < b *.M.S.S.S.S.S.S.S.S.A.k.s.q.o.%.,.4.6.6.6.6.6.6.6.6.3.j.t.q.8.8.8.8.8.8.8.8.^ z e >                 7 b.b.b.b.b.",
"b.b.b.b.U 8 < b *.M.S.S.S.S.S.S.S.S.A.k.s.q.o.%.,.4.6.6.6.6.6.6.6.6.3.-.@.0.8.8.8.8.8.8.8.8.^ z e +                 8 b.b.b.b.b.",
"b.b.b.b.U 8 < b *.M.S.S.S.S.S.S.S.S.A.k.s.q.o.%.,.4.6.6.6.6.6.6.6.6.2.>.w.w.8.8.8.8.8.8.8.8.^ z e >             X X 8 b.b.b.b.b.",
"b.b.b.b.U 8 < b *.M.S.S.S.S.S.S.S.S.A.k.p.q.o.%.,.4.6.6.6.6.6.6.6.6.z.,.#.o.8.8.8.8.8.8.8.8.^ z e >               X 8 b.b.b.b.b.",
"b.b.b.b.U 8 < v | h.A.A.A.A.A.A.A.A.B.j.i.q.o.%.,.4.6.6.6.6.6.6.6.6.3.,.w.q.8.8.8.8.8.8.8.8.^ z e >                 8 b.b.b.b.b.",
"b.b.b.b.U 8 , f _ a.k.k.k.k.k.k.k.k.j.s.t.} o.%.,.4.6.6.6.6.6.6.6.6.3.,.#.w.8.8.8.8.8.8.8.8.^ z e >                 8 b.b.b.b.b.",
"b.b.b.b.U 8 1 a G e.p.p.p.s.p.p.p.p.i.w.w.9.q.#.<.3.5.6.6.6.6.6.6.6.4.,.w.q.8.8.8.8.8.8.8.8.^ z e >                 8 b.b.b.b.b.",
"b.b.b.b.U 8 > e V { w.0.w.0.0.w.q.9.q.9.9.9.q.w.j.5.6.6.6.6.6.6.6.6.4.,.i.9.8.8.8.8.8.8.8.8.^ z e >                 8 b.b.b.b.b.",
"b.b.b.b.F.J t c C H ^ ^ ^ ^ ^ ^ ^ ^ H 8.8.^ 8.q.+.-.-.-.-.:.<.-.,.,.-.$.X.[ ^ ^ ^ ^ ^ ^ ^ ^ S d e +     X   + ; 1 7 J b.b.b.b.b.",
"b.b.b.b.G.F.I P K C z z z z v B z z z z d z z l ~ W ! ] ! ! ! ! ! ! ' W l z z z z z z z z z d e 3 +     X X ; b.b.b.b.b.b.b.b.b.",
"b.b.b.b.b.b.b.b.P c e e e e e e e e e e e r r p y y h h h h h h j h h y e e r e e e e e e e e 3 >   X X     1 b.b.b.b.b.b.b.b.b.",
"b.b.b.b.b.b.b.b.I 9 : : : : : : > > > > > > > ; & = = = = = = = = = = > > > > > > > > > > + + + + X X X     7 b.b.b.b.b.b.b.b.b.",
"b.b.b.b.b.b.b.b.G.9 8 8 8 8 8 8 8 8 8 8 8 8 8 8 7 7 9 7 8 8 8 8 8 e 7 7 8 8 8 8 8 8 8 8 8 8 8 8 7 7 8 8 7 7 J b.b.b.b.b.b.b.b.b.",
"b.b.b.b.b.b.b.b.G.Y U U U U U U U U U U U U U U U U U U U U U U U U U I U U U U U U U U U U U U U U U U U U F.b.b.b.b.b.b.b.b.b.",
"b.b.b.b.b.b.b.b.b.b.b.b.b.b.b.b.b.b.b.b.b.b.b.b.b.b.b.b.b.b.b.b.b.b.b.b.b.b.b.b.b.b.b.b.b.b.b.b.b.b.b.b.b.b.b.b.b.b.b.b.b.b.b.b.",
"b.b.b.b.b.b.b.b.b.b.b.b.b.b.b.b.b.b.b.b.b.b.b.b.b.b.b.b.b.b.b.b.b.b.b.b.b.b.b.b.b.b.b.b.b.b.b.b.b.b.b.b.b.b.b.b.b.b.b.b.b.b.b.b.",
"b.b.b.b.b.b.b.b.b.b.b.b.b.b.b.b.b.b.b.b.b.b.b.b.b.b.b.b.b.b.b.b.b.b.b.b.b.b.b.b.b.b.b.b.b.b.b.b.b.b.b.b.b.b.b.b.b.b.b.b.b.b.b.b.",
"b.b.b.b.b.b.b.b.b.b.b.b.b.b.b.b.b.b.b.b.b.b.b.b.b.b.b.b.b.b.b.b.b.b.b.b.b.b.b.b.b.b.b.b.b.b.b.b.b.b.b.b.b.b.b.b.b.b.b.b.b.b.b.b.",
"b.b.b.b.b.b.b.b.b.b.b.b.b.b.b.b.b.b.b.b.b.b.b.b.b.b.b.b.b.b.b.b.b.b.b.b.b.b.b.b.b.b.b.b.b.b.b.b.b.b.b.b.b.b.b.b.b.b.b.b.b.b.b.b.",
"b.b.b.b.b.b.b.b.b.b.b.b.b.b.b.b.b.b.b.b.b.b.b.b.b.b.b.b.b.b.b.b.b.b.b.b.b.b.b.b.b.b.b.b.b.b.b.b.b.b.b.b.b.b.b.b.b.b.b.b.b.b.b.b.",
"b.b.b.b.b.b.b.b.b.b.b.b.b.b.b.b.b.b.b.b.b.b.b.b.b.b.b.b.b.b.b.b.b.b.b.b.b.b.b.b.b.b.b.b.b.b.b.b.b.b.b.b.b.b.b.b.b.b.b.b.b.b.b.b.",
"b.b.b.b.b.b.b.b.b.b.b.b.b.b.b.b.b.b.b.b.b.b.b.b.b.b.b.b.b.b.b.b.b.b.b.b.b.b.b.b.b.b.b.b.b.b.b.b.b.b.b.b.b.b.b.b.b.b.b.b.b.b.b.b."
};
