/* XPM */
static char *a5493cbcc8674707d71e753b1d23401cD8F6PZlIjY2yZcab[] = {
/* columns rows colors chars-per-pixel */
"64 64 11 1 ",
"  c #141B1B",
". c #4E484A",
"X c #4A7F4B",
"o c #E66A3A",
"O c #E46D3A",
"+ c #965340",
"@ c #965746",
"# c #74A334",
"$ c #ADBC01",
"% c #A2B036",
"& c #ADBC3A",
/* pixels */
"&&&&&&&&&&&&&&&&&&&&&&                    &&&&&&&&&&&&&&&&&&&&&&",
"&&&&&&&&&&&&&&&&&&&&&&                    &&&&&&&&&&&&&&&&&&&&&&",
"&&&&&&&&&&&&&&&&      ####################      &&&&&&&&&&&&&&&&",
"&&&&&&&&&&&&&&&&      ####################      &&&&&&&&&&&&&&&&",
"&&&&&&&&&&&&    %%%%%%%%%%%%%%%%%%%%%%%%%%%%%%%%      &&&&&&&&&&",
"&&&&&&&&&&&&    %%%%%%%%%%%%%%%%%%%%%%%%%%%%%%%%      &&&&&&&&&&",
"&&&&&&&&    %%%%%%%%%%%%%%%%%%%%%%%%%%%%%%%%%%%%%%%%%%    &&&&&&",
"&&&&&&&&    %%%%%%%%%%%%%%%%%%%%%%%%%%%%%%%%%%%%%%%%%%    &&&&&&",
"&&&&&&  %%%%%%%%%%%%%%%%%%%%%%%%%%%%%%%%%%%%%%%%%%%%%%%%%%  &&&&",
"&&&&&&  %%%%%%%%%%%%%%%%%%%%%%%%%%%%%%%%%%%%%%%%%%%%%%%%%%  &&&&",
"&&&&  %%%%%%%%%%%%%%%%%%%%%%%%%%%%%%%%%%%%%%%%%%%%%%%%%%%%##  &&",
"&&&&  %%%%%%%%%%%%%%%%%%%%%%%%%%%%%%%%%%%%%%%%%%%%%%%%%%%%##  &&",
"&&  ####%%%%%%%%%%%%%%%%%%%%%%%%%%%%%%%%%%%%%%%%%%%%####%%##  &&",
"&&  ####%%%%%%%%%%%%%%%%%%%%%%%%%%%%%%%%%%%%%%%%%%%%####%%##  &&",
"&&  %%%%%%%%%%%%%%%%%%%%%%%%%%%%%%%%%%%%%%%%%%%%%%%%%%%%######  ",
"&&  %%%%%%%%%%%%%%%%%%%%%%%%%%%%%%%%%%%%%%%%%%%%%%%%%%%%######  ",
"  ##%%%%%%%%%%%%%%%%%%%%%%%%%%%%%%%%%%%%%%%%%%%%%%%%%%%%%%%%##  ",
"  ##%%%%%%%%%%%%%%%%%%%%%%%%%%%%%%%%%%%%%%%%%%%%%%%%%%%%%%%%##  ",
"  ##%%%%%%%%%%%%%%%%%%%%%%%%%%%%%%%%%%%%%%%%%%%%%%%%%%%%%%%%##  ",
"  ##%%%%%%%%%%%%%%%%%%%%%%%%%%%%%%%%%%%%%%%%%%%%%%%%%%%%%%%%##  ",
"  ####%%%%%%%%%%%%%%%%%%%%%%%%%%%%%%%%%%%%%%%%%%%%%%%%%%%%%%##  ",
"  ####%%%%%%%%%%%%%%%%%%%%%%%%%%%%%%%%%%%%%%%%%%%%%%%%%%%%%%##  ",
"  ######%%%%%%%%%%%%%%%%%%%%%%%%%%%%%%%%%%%%%%%%%%##%%%%%%####  ",
"  ######%%%%%%%%%%%%%%%%%%%%%%%%%%%%%%%%%%%%%%%%%%##%%%%%%####  ",
"$$  ####%%%%%%%%##%%%%%%%%%%%%%%%%%%%%%%%%%%%%%%%%%%##%%####  $$",
"$$  ####%%%%%%%%##%%%%%%%%%%%%%%%%%%%%%%%%%%%%%%%%%%##%%####  $$",
"  XXXX####%%%%##%%%%%%##%%%%%%%%##%%%%%%%%%%%%%%%%%%##########  ",
"  XXXX####%%%%##%%%%%%##%%%%%%%%##%%%%%%%%%%%%%%%%%%##########  ",
"  XXXXXX########%%%%%%##%%%%%%%%##%%%%%%%%####%%%%############  ",
"  XXXXXX########%%%%%%##%%%%%%%%##%%%%%%%%####%%%%############  ",
"&&    XXXX################%%%%######%%%%##############XX##    &&",
"&&    XXXX################%%%%######%%%%##############XX##    &&",
"&&&&    XXXX########################################XXXX    &&&&",
"&&&&    XXXX########################################XXXX    &&&&",
"&&&&  XXXXXXXX####XX##########XX######XX########XXXXXXXXXX  &&&&",
"&&&&  XXXXXXXX####XX##########XX######XX########XXXXXXXXXX  &&&&",
"&&&&  XXXXXXXXXXXXXXXX####XXXXXX######XXXX####XXXXXXXXXXXX  &&&&",
"&&&&  XXXXXXXXXXXXXXXX####XXXXXX######XXXX####XXXXXXXXXXXX  &&&&",
"&&&&&&  XXXXXXXXXXXXXXXXXXXXXXXXXXXXXXXXXXXXXXXXXXXXXX    &&&&&&",
"&&&&&&  XXXXXXXXXXXXXXXXXXXXXXXXXXXXXXXXXXXXXXXXXXXXXX    &&&&&&",
"&&&&&&&&    XXXXXXXXXXXXXXXXXXXXXXXXXXXXXXXXXXXXXX    &&&&&&&&&&",
"&&&&&&&&    XXXXXXXXXXXXXXXXXXXXXXXXXXXXXXXXXXXXXX    &&&&&&&&&&",
"&&&&&&&&&&&&      XXXXXXXXXXXXXXXXXXXXXXXXXXXX    &&&&&&&&&&&&&&",
"&&&&&&&&&&&&      XXXXXXXXXXXXXXXXXXXXXXXXXXXX    &&&&&&&&&&&&&&",
"&&&&&&&&&&&&&&&&&&        XXXXXX..XXXX        &&&&&&&&&&&&&&&&&&",
"&&&&&&&&&&&&&&&&&&        XXXXXX..XXXX        &&&&&&&&&&&&&&&&&&",
"&&&&&&&&&&&&&&&&&&&&&&&&  ......@@....  &&&&&&&&&&&&&&&&&&&&&&&&",
"&&&&&&&&&&&&&&&&&&&&&&&&  ......@@....  &&&&&&&&&&&&&&&&&&&&&&&&",
"&&&&&&&&&&&&&&&&&&&&&&  @@@@@@@@@@@@@@@@  &&&&&&&&&&&&&&&&&&&&&&",
"&&&&&&&&&&&&&&&&&&&&&&  @@@@@@@@@@@@@@@@  &&&&&&&&&&&&&&&&&&&&&&",
"&&&&&&&&&&&&&&&&&&&&&&  OOoo@@@@@@@@OOOO  &&&&&&&&&&&&&&&&&&&&&&",
"&&&&&&&&&&&&&&&&&&&&&&  OOoo@@@@@@@@OOOO  &&&&&&&&&&&&&&&&&&&&&&",
"&&&&&&&&&&&&&&&&&&&&  ++ooooooooOOoooo++oo  &&&&&&&&&&&&&&&&&&&&",
"&&&&&&&&&&&&&&&&&&&&  ++ooooooooOOoooo++oo  &&&&&&&&&&&&&&&&&&&&",
"&&&&&&&&&&&&&&&&    ++++++oooooooo++++++++++    &&&&&&&&&&&&&&&&",
"&&&&&&&&&&&&&&&&    ++++++oooooooo++++++++++    &&&&&&&&&&&&&&&&",
"&&&&&&&&&&&&&&&&++++++++oooooooooo++++++++++++++&&&&&&&&&&&&&&&&",
"&&&&&&&&&&&&&&&&++++++++oooooooooo++++++++++++++&&&&&&&&&&&&&&&&",
"&&&&&&&&&&&&&&&&&&&&&&oooooooooo++++++++++++&&&&&&&&&&&&&&&&&&&&",
"&&&&&&&&&&&&&&&&&&&&&&oooooooooo++++++++++++&&&&&&&&&&&&&&&&&&&&",
"&&&&&&&&&&&&&&&&&&&&oooooo++++++&&&&&&++++&&&&&&&&&&&&&&&&&&&&&&",
"&&&&&&&&&&&&&&&&&&&&oooooo++++++&&&&&&++++&&&&&&&&&&&&&&&&&&&&&&",
"&&&&&&&&&&&&&&&&&&oooo++++&&&&&&&&&&&&&&++&&&&&&&&&&&&&&&&&&&&&&",
"&&&&&&&&&&&&&&&&&&oooo++++&&&&&&&&&&&&&&++&&&&&&&&&&&&&&&&&&&&&&"
};
