<svg width="65" height="65" viewBox="0 0 65 65" fill="none" xmlns="http://www.w3.org/2000/svg">
<path d="M65 32.5C65 50.4493 50.4493 65 32.5 65C14.5507 65 0 50.4493 0 32.5C0 14.5507 14.5507 0 32.5 0C50.4493 0 65 14.5507 65 32.5Z" fill="#D9D9D9"/>
<path d="M55.4407 35.4142C56.2218 34.6332 56.2218 33.3668 55.4407 32.5858L42.7128 19.8579C41.9318 19.0768 40.6654 19.0768 39.8844 19.8579C39.1033 20.6389 39.1033 21.9052 39.8844 22.6863L51.1981 34L39.8844 45.3137C39.1033 46.0948 39.1033 47.3611 39.8844 48.1421C40.6654 48.9232 41.9318 48.9232 42.7128 48.1421L55.4407 35.4142ZM13.9766 36H54.0265V32H13.9766V36Z" fill="black"/>
</svg>
